<mxfile host="65bd71144e">
    <diagram id="NXRMMULgd1n89--RGDpt" name="Led">
        <mxGraphModel dx="1156" dy="823" grid="0" gridSize="10" guides="1" tooltips="1" connect="1" arrows="1" fold="1" page="1" pageScale="1" pageWidth="1500" pageHeight="2000" background="#ffffff" math="0" shadow="0">
            <root>
                <mxCell id="0"/>
                <mxCell id="1" parent="0"/>
                <mxCell id="hprcXXvweSJYmS1K74kE-19" style="edgeStyle=none;html=1;exitX=1;exitY=0.5;exitDx=0;exitDy=0;exitPerimeter=0;entryX=1;entryY=0.136;entryDx=0;entryDy=0;entryPerimeter=0;fontColor=default;strokeColor=#000000;" edge="1" parent="1" source="2" target="hprcXXvweSJYmS1K74kE-17">
                    <mxGeometry relative="1" as="geometry">
                        <Array as="points">
                            <mxPoint x="360" y="241"/>
                            <mxPoint x="360" y="367"/>
                        </Array>
                    </mxGeometry>
                </mxCell>
                <mxCell id="2" value="" style="pointerEvents=1;verticalLabelPosition=bottom;shadow=0;dashed=0;align=center;html=1;verticalAlign=top;shape=mxgraph.electrical.resistors.resistor_1;strokeColor=#000000;fillColor=#FFFFFF;" parent="1" vertex="1">
                    <mxGeometry x="219" y="231" width="100" height="20" as="geometry"/>
                </mxCell>
                <mxCell id="6" value="" style="endArrow=none;html=1;strokeColor=#000000;entryX=0;entryY=0.5;entryDx=0;entryDy=0;entryPerimeter=0;exitX=1;exitY=0.5;exitDx=0;exitDy=0;exitPerimeter=0;" parent="1" source="hprcXXvweSJYmS1K74kE-10" target="2" edge="1">
                    <mxGeometry width="50" height="50" relative="1" as="geometry">
                        <mxPoint x="129" y="241" as="sourcePoint"/>
                        <mxPoint x="179" y="326" as="targetPoint"/>
                    </mxGeometry>
                </mxCell>
                <mxCell id="hprcXXvweSJYmS1K74kE-18" style="edgeStyle=none;html=1;exitX=0;exitY=0.5;exitDx=0;exitDy=0;exitPerimeter=0;entryX=0.01;entryY=0.276;entryDx=0;entryDy=0;entryPerimeter=0;fontColor=default;strokeColor=#000000;" edge="1" parent="1" source="hprcXXvweSJYmS1K74kE-10" target="hprcXXvweSJYmS1K74kE-17">
                    <mxGeometry relative="1" as="geometry">
                        <Array as="points">
                            <mxPoint x="40" y="240"/>
                            <mxPoint x="40" y="426"/>
                        </Array>
                    </mxGeometry>
                </mxCell>
                <mxCell id="hprcXXvweSJYmS1K74kE-10" value="" style="verticalLabelPosition=bottom;shadow=0;dashed=0;align=center;html=1;verticalAlign=top;shape=mxgraph.electrical.abstract.multiplier;strokeColor=#000000;fillColor=#FFFFFF;" vertex="1" parent="1">
                    <mxGeometry x="80" y="220" width="41" height="42" as="geometry"/>
                </mxCell>
                <mxCell id="hprcXXvweSJYmS1K74kE-17" value="" style="shape=image;verticalLabelPosition=bottom;labelBackgroundColor=#ffffff;verticalAlign=top;aspect=fixed;imageAspect=0;image=data:image/png,iVBORw0KGgoAAAANSUhEUgAAAGYAAAGkCAYAAADDiFBpAAAAAXNSR0IArs4c6QAAAARnQU1BAACxjwv8YQUAAAAJcEhZcwAADsMAAA7DAcdvqGQAAMVqSURBVHhe7P1nlGxJkt8HWshUkfJprd+reqWrWqtpOdMjMAA4GBAAARLAAXZxiD2He/bbcr/u7lnuhz2HZ0kulwtQAYTggAMQGNk9M90z3dM9rburS9fT+qXOjAwdkbH/n93rkTcjQ2Tmq66aD7T3LONed7/m7mauzdw91RaYIP753+DPCbhgEEq5UrHV9WXLpHNyjX3/N3hfATmkrG2FiclIMI1Gw77yx1+x//R3/1PLjKUtlf4ZSIYKOahS/nksDP3SS1rf4/RCrtFs2MTmlP3dD/2dLcH8ztd+x/7ub/1dW5lZMUtHgd9TWFPkrf65aafFhT9PrSlJ3eRnZ5rbWSW0oIf3mk9Ns6OVo/YPLv+DSDDNZtO+8s2v2N/613/LlmeWzTJxwPcCArNLwkb02IHYL51N23hpzLJ38z0Z8X5DO9O25tGGlQtl29yUdLohK5wQ/gwEc6xyzP7BxYRgvvrNr7pglmaW3lfBZMtZu7xwyQ6uHlRiPniheKL0v5Fv2Bvn3rL1qfVIOCEf/CKQSeF7yScgIZifRaO1a8hu5uyld16ywyuHLdNOKzGpDnb/S/o9Kfb7F/nrXyptI/URu3rzaTtQOmjptNj0PpeZ91YwlKYk9gOVtGwray+//VE11eOdPHd/WleT0VCzAnb77QeS3zcCbf3WlZ4d9JWokUbeLl4/b9PrU8OFkySwjdD+4L0TTEhIMvF9Epe9nbGXXn3JJmpbbUHIC8JoIrj2ph2v1uypjQ27slFS7dp0RgYm7gU6tPVtHSGnN+2y6D7ttDfsWK1mm14AtsKGOEZrI/bUrbjmqCbtEE4yMNCd/6TfHuC9EUwy8hGlLTuoaJk9ffuq15QAUfpTzpzj1ap9bGXFPre8ZB/X77MSyrNi3mdXl5yRx8XElkZwu81vCIdQJ5qbdrVUsi8uLtlzxQ17RrT5JZ6Prqx6QcipQCRrEIwerUU1p1DUUCwZcXcikFteH4gH2zjbHW4X8OSCCZFCqSX8PeGPlMBcf+FMTM3GT9HnYEuM+4WFRfv48oqdFPPzGqtuaj7VFLaEI2IYjISJH1lb8/DD8hv8qYFP6dsvLi3YVQliVLSg2Yjpt4UnayoQqyv2qdVlm2o0vYlL0k9LWrmFnOQE92NHIARSHLYu/Kq8/5UCLOqZcCHssMR2wZMJJkRG5CwYvK4u9E/18tuR87YMJCEVefA5COOulDZsUqPDTbXlo4cKNnV02ia7cOzwpG3q2xOVil1Wye9mXi+geaIWIhgy285lrHBgwqaOTNvMkUmPBxzVu2UzLpSrpaKNthgmdwl/kyFCF7ic9O8Hwn8s32/K7XW5/SO9/6bey1GYvcKTCQYgpaopqd/Tw+/oWUO+bEock6B2A/QpT0koz6gk1+hgVXpnjk/Zmb/wGTv7qz+3hb/yGTty5bCX7pbCPaXwE/VNq/URTiT0thUam/ayahiQ0nzp2JVDduzqcTv3Sx+3j/zcU3b+Vz5tZ371s3bqFz9phcNTqokSvJq0F9ZV/HfTZFJTmAZ8V/G1FP7D+uIX9U5z9lCoaeFwIjvhyQSDUCgx/4sevqfn40pDSqnAHRwAIa2sDT2zXlSTAqGUTcyOW1rMKf7oJ1b84Y+38Cc/sXqp6t/wbbat70rr8K4n4ExNPFErW14DB6ZIuLHcVN8o29pPX7fr1x/Y6o9fFf0fWemnr4mxTYVTXyc8rOaUOAZOrfATUc/zs3r+qPBTwheET8tdgjJNC1lBGMaPbnhPakz7iBLwZf1+Sb+7TkDKS/uRWmPbPC0tpmjOa+1GwzTz7eCmmhjbFH1AYeoZtfliOILtByRlTnR2JAlBNVvWooTH9Ft1FXvFC/A3q78H9G1LHBooHJiu1qH9SX2FUJh4UkGvC0eFJ4RksH8ye8KTC4YO/+cU70c1rlIO+Lc72ErpjjSL8WBufMRGJsdspCCcVC4DaVZhhYVWy/KSVz8g+KTCUBu3xZFJi3beaUI7O5q3jdWq5MXYMAJqYkECg0EDeYpnCCABpOqi8EM914SXhAeEgege4MkFEwABDczBToCp8/m8VVX6O6VVmYBhLQ1t568tWmW1ZJX1klVXWbfaioDacndsVLWud65xhc33Rkcsk2A4Ms/ksrZ0a8XKy2UrrZRs6fayjU7kNImM6h9CpyJsZLL+2xeS+RUnXShx529nhJ8QUlvgTe9k9oX3RjAkMJnIXQDpBDXQsYV8zieQMKQtJrbUYT94a8GW76/ZvTfm7d7r83b7Jw9t9UFR8UQR0Q8s5/IDmxlCrihMU2FDsGa9ZQs3lmzp7qrde3Pe7r81b4t6nr+xYk3FSzj6lo1s1hZJl5jarx/rADWloS//RM9vCj8n/FUhTRlC2Qe8dzWmG3YpqHyzbd+dnraHo6OWV7OzsVK2a9++JSa1fNV5U/0AtYeiXlQJhy6d+YOREZsXUut6yQa3nJjyeCRv70xOuNBNdB69u2TriyUNAtS8qRBsKv60aixCKa9rcCG3tVzOvj81Y9V0piftbQAHFU/7G6JPE5YXMp/5U6XhT1Qg5kVhH1x+TwXjoxOqLljHAdedQDD/dWSSl7YfT05bXYwIHTx+JA6G+i+O8kMoMO4HM9OWEUOGMS7dStm18XF7IMGn6fSZn4gOjVZEO0JvxORO7XqrUFAcWRfsQPohkfeFrwpZQX8g/GMhTRqCeiykPRyW0C547wTDWJ4RyQUVzFc00iGjfWAzo5Qm2iBKfSmXtj88cND7GwTVEIMyYmRGzPN1slRagku7UP74wJzPeYblFX+wvSnBT03ZvbEx1YK0Mx/a9FPQTscCKSnunygcQiSJzpw4G+0UQ25y1ZUvhLeh4nVcMV3U+3kh/ctZ4Sl9N63wngjhHkCF5j3Sx4SIQ41BUMnEUJqoRYJT5dN29vopyzY1XlaiCQYy2RwVow5qCE0JPqUZPiV3WkPlu2LqeiZnVTVv7XgGDu4GIvr6q85iVE3XdKuhSWTVhU5fta4Z/1o2b0sjOaurAFATOyVWnzXlMD8zbzcP3LL6hDKBZ7c+pl+CQuZ2Ayqg770+JiSKRHQLJQBVWvBg6r69eeUda2apOVt5ouZsqnQv5kbsvkZT35uZsbfVrPB7X6W4oqYOoZDoXjzoBxF9/RNt+o0Hov1D9WvQ/b5+354oKM68x+2dPR/FDNUMx+ZnF+zmBQllMi5ZvSAO3xP3Ae+dYAA4EBISuJ0ESpjcWurklyaW7NaF29bIShqRsycGhEROfUNKQsjEv7T3wX8/EJIDZrE9YDhIzSMOnuUT/D0Bemikmvao+dhuzUkoLQllGJPx78Z9wnsrmD1AWyMkas5PL72m5qPueaBCgSE/zqTEb/B/EkzSDggkwwANNV93Lt6z26/ctlpBs8UnYPJ+4AMTDEDNWZ8t2o2xW/7uWsUY6W+6Men/JDiINutryKCWrtnSwUWr5wc0Xz9D+EAFk9EoaO7NWTtfYQgT9TEfNIYh8lhz1E5eO2EjGyMRl0LVep/gvREMRawbe0HwUyYzmawdXzthT61esXwbs6XteU+SCgiEcHtGEQjzJyBJN+HsYfmTbqft8OJhu/DWBRtdZgr//sKTCybkKnAgQDK3AeIGPN/O2fH143bm5mlNlLcUN6EPoElJp/XGWkiMvKMeDmH2BPqAb+jjXW2coBtob+qXMAHJSradsYOtA3b+xnkbWxnb6oAGQZLIE8CTCSZEDhUxsyOY8NuduHhUdu7OeTt747TlUC/GQNCWXkfV7zDH+Mzysiu4wFeEn3GVc90yYmIzFtBuALoIxOezYv5MvWkvxnTBDwk/JdpoRMdbTU1utwREWrGOOdg+YJfuXYqatX7Q+SgB3e97gP0LJkRKhlnivi38sV7nNezMyBH3XokVzKwdsizVgjACglAbjteq9vH1FXtledXGxcDD1ZrjIQlqvN6wl1ZW7DNLywpXd5XxUOHEcdezGhJr5o5APrW8pAluRXSrTvugfguifbm4YR9eX7MTtZrXqJB0zT/1bdomGwWbWJ5QkuO8JSGZR/wob4GzSb89wJPVGBJBZ/lvlNz/Wfg1Ofwzud2UW7pHBgI0+Ggr8wgFhryyuqZS21L/k7b02KhlNRGMcNQyes9J4DMISAyeqbdcOH1BhAN9agKq4lMSAkswWc3wc6KZpJ3PZ21S4Z4rFt0SJymcCJS/VmQu2BMISJaVb19pRtm69fGeYf9LMkRKuLdEBKOD43q+KvyqkBXWvyc8oGCNOHUJE9mP/fQzGvVEug9My06KYTQpXkoklLMvn7SxK095RjugwBtvvGm3v3vbV53rKspfPXTQ18F6lS4Wk2m+Umr6Pq2marbRcKubqcMFe+7ls7Zy4KiauEiBhg3b1MID+/6fvGu1ct21oz+dnPTVBl+eUaC6JptvTb9tK+eWo7U+jMrJPwSAWCh2V+G/khbtTWv/RXnOyS+EGQYaFb43SzJKtJuHsXj3c8JXhGjsKsIF0tMnRbQPAfT43MaGJwR9+8S0RkAq1e3H97bh5uO7VlrcsFQu41SpWWfL5c68YweILn4HVMNmEAoO6i8mD07Yipqw1uMHTteEzfn7cqtbfoJlmbaNtDa9z0EvMxCS3mSA5f5vK/l3lf6KPOFPIqt7gf0LJkR4VOn7NYngvPAnSowE4iusF4QqAf1kE5zVitmYmIxQgLRqDEvzlaVVqyxuYXVpzcYmVRXjeBti8mH1NVG92wmRK3r7aIIYBgCU6o210nb6C2tWXJLQlYZ0VoJXuAm1IqgYdsVYFYCUWgBf5leN6SRpN9/2gSerMQDVmcHKqvA7QnrkZ4QaXfbhWQfoI+ZUoll+74C+8ZrGtwgrgZlcnFzeBRhaMCnsB4Q+ptrBCnJIipPtPEBXj4q/hM5fBWITpZz8qC3Yo/lSfxRdbyASYfsdhbspfE4fs0UjCSHyPcCTCwYKMAdB/JqQZu1rwneEySF0D8i22lZCOZYEeKVaA5My+VwHs+qcOxA3MSu5nI+4BgE6Fpb3QyhkgfEFTRa6/4xo4DtayEV9RKf5irr5gTxVAGqZsaL0p0L0MB8ShvkoHwcCAwnthCcWTLokEhi1wTcUQ59WCuK2ttPGgl0QOaesoo68mM2qg41S3pJAUqmMrT7csMWbSxHeAJetWduqHoyu5kfyffMLffqVO2MqMR1mQ79tlfWKrT2C/rIjtgSl5Uqswo6+LalJe5wbsbTawOSKwTaAexp9pb6jL5Tn1AGFva9nTR9SNf0+kj9TCQjuEZ5MMErwyL9RO/ZP9YxKFWrzkTvo85n4uR/g9ZpGQLAc4ZTXqnbv9Ye2+rhoKw/WI3y4bsv6fXx9Wc1OpBLG7vjW+LjrT/rlG3UPwitlslEYfbv2qOh6f2gG+sSFHUClWNOgMG1oBe5oCF3SQGMYtOvKgQSQKuujP5TD7wsZgdK0f0uIDTN86ZfIPrB/wcBR1ZLasZonKvUbwn8n/EOlgKHkxxSkb1HbgrwYi1IMla7Xh2bLmhqy0kRsQwmiVWt5glEDv1souLaxXwbgA9EzSPju9IwPrxHqxnzJGtVmh6Zj7JfCCFDP1yfG7eaYhpvqXAYyiK6RiGjCGOwcEx4U8hG23HPyZMUp0YXuFvYvGEARbv6choYfEgdUcdpvq/Mr6Plzer4EV+Jw3dCMBObME6IMu6cS+pPpKc1rlCQxh+YepNKFZ0ZWNHuEuzY+4bVlGKCHW9GEknkJ3zKXIdOBtqKKntU0Yg9wTUK5rppIEWD+EqCtuQ77anxgEoBHWsovy/WvCH9d+EtyZP52VM+f1fOhONweYf+CUWZCrbFP6/Gv6+XX9fw39Pyinre6gy0gvLDYXHKzJAAyINYsdzWh+8bcnL0j5sDEDQwz5MdvUW0+BhXfnpmxe6Nj6ryHlGZBoM0kkcnid/TtqxIqdgQMCqCNUQe0sSn4zsysvTsxIffMllD0u6mmczW9ZhuzG3qVQ/ADiIAJdcApYWy77C1HSMQe4cmNMUgkHEpGTtVNJh6g3WWZQmFH1kbs0rVLKlhzmvPpQ/0nOEitSKsNyquE0hQxQVzSqAw/t9gUbZi2lxIVaDvqY/baMH9iNQC3VUZ3SkdNTSP9En4O/puyjdENe/P4m7YxQybcacsYI4RNAv5Jd953Ayop750xRkgEwggI4N6doDi22nTN3rn6ji1llqyl5oHvCYo3W+gxuFA3bFWNzh7nR/23Jkyr5OO/10QH2vCRUVZdTxXRm8+N2oKwovdWO+1Ksm6hlEZLduPkTSvNliNCwT9AyCcYIETW7b4H2GsenwwSmaiP1+3dl6/Z/IF5Nw8ivwFJFLWCGkM34jWE90SY/SI0krSdfnDTL5NJwtGbbIwX7frJG7Zc0GiQITcegwACYCD8BPD+CqYLatma3Thz09ZHmfhEKwFJZK0L7HZ/LzDQ7qbfhCMSQCVbtXfOXLPlKQkFqe0FgoCeAD44wZDwupqmh1nLVyIFFKOsDxoZKJC0nNqi0faor919EPCBCqbwqGCXH1628c1orz+JAb2w8acLg/++UQWfJqwXbX5COCDXytnZu2fsYPGgJp0aehLgfYSQjicDMtsPewDW9YW1gl2df9pmNqd9HhGAUZl/BgcTiE4+2OntGSAopP/ge2h106cZg77e9I5Tys+3OXtHwtk4qBrEjBHPHsBHvfAJ4MkEExIQiloSB8Bc+YBdvfO0FVoTPsEDIONMF5MKraZdLJfsUow8swd/tM2u5khAuwYRhjbf1DWjzKlXPlqr2YUO/Q07r19sAdjj74LzdPjXNl6OhHN09Zhl2ZsIJOOHeADck/lP+u0RhrBwAIRISQztsnLeQXKWTHwXnL5z3gq1gi/ZQIYRNr8pvV8slezl9TU/DeNyAlENf3h1zQ01cvoijMoHgohCl5qSS21qTlS3ZzY27Jn16LSNiHbZt5q/ojivbhQl/FYkHL6P84Bwjt87ZoXHk3JKZCzwAFCN82We8HEIlgyzB9i/YAC+3hD+VPgT4Y+30E/HSOQhCSPVUTErYi1BGirJ7He8oNJ7SYybYXKJjqYVYUqYl//cZsueXy/as8V1NX9DhBMzBKGkVMueKRbtw2urrp+Z6Kav56nNpp2qVD0cNWpTeYM+30Msp9qSqbORqUem6IJQlV9XQfuRIn5NbiuR137hyQSjwZQfuvBHSiybdVjqB9laDvQpLWFxk79kvNBo2ivFNS+9TPDGD4xZ/tCsTRyds4ljB/x3+sis3Mc1a2+7jQDNDzuK+wkH2hRewhyrVb2mTUiwY2NZO3B8ygrQPhrR5nnu2LTl8mk7IeFwNAoHMTCUDllwAfWQCRz0JX4K5h8Jvy+nr6Ut9Q25FSP//cD+BRMnNLUgwZT0wLbpp5SB51RqXqGJClnqD5DAAO+ZUtHmGszHzcbmxiWESTvz2Rfs2V/+qD37Cx+25/R7+csfsZmjk2J0FPHFUtlV0nTaPWNSMPwmmi0/poSMbmrQcejMjD313Al79hcjus/98sfs2S9/2C4/e8LGp8d8IjmttFyslJSeIXkg/0gMpeB39DwjXnw+ZdnDWUstyh19zMBq3R/2JxjSC9ZE4GY6Guuzxx3DlleUIA4i6LWImQA+p0SjXaQGsDyPCjiby7gKeXPhkZXnH9navbtW4vf+vc6cgryywel0teLC7QXQx+94verNpLNYDtmRjC2vl6208NjKCw8deV5YVvFW/JuKA/uDI2rOIlsEPuwDJId83ld8dRXFDwmfblvzi4rv44oRwxSPeO+wP8EAJFgT9s31TWthJ0bz9Xsi+K9FkvYV/4GJSnmJRucfnUARc4Bv9N5YW7eNhSWrrq2JcfwqMrkHQJAIJhevUvcCKB5Uh58MQddSKtdEe9k25pcci8KV+aK6m03Xy6jXcUMMhMMocaBwlHVXihGmop8/lXDvi85hxRr2+PdPYl/Yv2D0JdV183CcCHQvWB5dU86/omfapYHUt1LbnW92FKP3T7HtLqtmAYVYbuckjwVNzn7pB5hgULOSxhgAljDQVEQRbcU3Ojmi50hhBkA15wVmF3xlVLqRsvS3RJOBEPp/TqGiKeufvIGwf8EotekZfc4hA78QYfsXlZFxebyld3brxsP+fpBrtm0ln/ONsKiVnQHKSG4sZ/Vy3ZbvrNpSAuuVSPPmTBPD52N1QC+I+JGyh6MjnsnAn1AxV+6vxXRX/DwBr/UCN8gQkKZ1FQoMNcK3A4G+7pTy8Dml6LzoPNB3P9CXNHUU0n4J7QP7F4y+bK8r2XT+OZW0Y4p5Rgma1DsmolTvAUBmyTIMuDc6qhaj7cJhM1N5pWKPr6/YysO1Dq4+WLPFO2uRCljhUC+/WSh01rZ6QVrN3K14p7KHURJrEu7KfXT9EU3X/et96e6any2AeS6BH42M2FIub2gl4kFkf4AXKpDtlxTwRb2/JGT5jzNl9iiQAPsXjCLcXFKqmbdQda8JfyREIBKQj9KGDAAADmB4dWrSHoyMumBqazWbv7FsjZo6UMWRxHq54YMFmIxGEiOLfhkIgkcoN8Y12tJ7WnOWFQlgbX7D+xrcItqKVwJrFGsu9IpGb9fHJ1y7yepNX+Bbje9RI7vhCSctYXyxHNF8kiOA9y8YZcwPscFm+Z6Y8Ntiw3dVcw4ooZ9Roqbl3idT4RjfwDwY/ObEpNecRlODCTVjWTUp21CBaWVgFvYBb6i2sBo8DKhRWNMgyJpqWbtUd6ML6G3RFoqRDdWwZfVlb09MuFYTE+UopfrlQZ0a/zoAD2iuMXBUQeQkjMw/V//1xwo8qew/o7D480kgtEvYn2CIhMhm9fMFJRUd/0m9I6hfEWLD3GvrIt8IayPVjnCAEdUadPCYMV0rjLvZEDxPIocvrIppryvM64VJ1YT+tSUAMSB4Zkg0e69PFmwRcyZ1/li0dujrGRsD4vaDGiREaoprMx1T1tTktDGNKloOuCXhsJwYHmMunNev3u3jQixnAq/2CE+u8ydijMgDYGSOW3czhro8Nn47XD1q52+csbHaGClwb/7CIM47wmCcvTJJoFZRijGcYALEiGy3QFDmTMQ1IdrUjsP1mjedAMNjzqWJjD+i/qgjFEEtW7d5W7DbV25bY0QDEAIEnT/AO8BMH0njTjPGL+/BfxiIZ++Nzt9zLCQRIEIhIUEo3QmK35cKC/bu6WtWH2HvfOTIXwwhMBviBIxrak6SiBVLUbWERdK9CAWAdtSJp2xDNFZF/8bYeIf2DTV1uKH3h3ZSKNWxmt0/9cDuXbzvp5cH920AD3DHQoa5C804nIUX+4QnEww5Br09EJLA4AZ2Q+zeUrPAHQJ3T923ymjVR1rki4VDKhDNCOf+JZEAJBYSlP69onge0ehFn7lMgjYVifW86njNHhx7aI/mHlm1wOxRAXpBcCf/FEp4IRru3u+bIfBkgtkvkHEJ4+HMQ7t5/qZtjEVmQejbgx4+srLfQhjW8ed3PxjTdvqSzhb9LX+aUwDrnQdHI6HUaINh+vsISs4HBJTaVN3WJ9dtYy4SDKOgbnQ7r58R9qStdCEb1BLr+ldrSyiU/vcZPhjBeM7NxupjdvL2CZtZnXEnmLINxSjC7XB/UhRd+hxoh9FXQN5JTFrV58jdI1ZYKchNbIpr0vsF769gyDSoWMdXx+3Ug5N2dP6IjZW2DjjAm+bEh7MKhyoZHvr7EzIH2jSJ0E3Shi6IfwDGZoeqB+3cw3M2W5zVuz4g/idMw25Bse0TApPJWS8M/kmI38eqo3bm1hk7snxYzYlmYF5M9ZkyzafoQQqbTRtpt3w387RfEdWM+hr570lAcToC7U3RyIsu9LlsYbZRt3E9Z+QbaPMJC5pZDc0PVGbt7MMzNrc2pxqlTqgfxPFswyeA/QkmRMoWA3aSMUxOIm69IGboiUcn7VDzkGbuWyvGMASmzUoI5yuRjp+bMFD1PrdRtJf0zvn7U5pzORPj7wZCnE5ntmhPt5p+b8BV0X1R9Ng6/tLGur1YXFecZRdS97mxTFCnSlN2+uEpG99Q5qCZjDsIATdm+fAEDDIMvNoj7L/GCFLrSg0LdayPBeQ9MqzcCSReeGDtqGWycdMggMkw+4QY/2JxzS4WN2yuUrOjpYqN1hs2JWYeKlfs6VUxU4w8V8aOOKo9gwCeQBudP8fCP6tvr65JwCUJQfRH600r1Oo2V67ZhbUNe14CgvaIhvN85zz1NLZtvDxh+eWuq7qSTCeemnyLEfrKRwi6D+HsTzBECFe+rkc2LP2rGH9TyEEMcnMICeuCdDtaQHLGgWLyeTGE8/2pETl5ZCdGbHwiZ5nCqB+MnS6MaA4b1aiLCsvKAIq2vhAzg2NQMK7g/gA2045vbloun7XcRF60oTvqcU2M52xOIzFqzulaxc2cIBF46qltKG+9MkUZo5B+X79s3Pp9/X5XvxTSEDwQ2iXsv8YQEZMpVCTwmeaLUe91eVXlGfG+J9CsBIC51BTMlliKaXNCxbEpO/70YTv29FH9HrHjV4/YET3nZ8Z8zoF28er6ho1SsmM63UAMhOVwhUuizfZwtKTjhwt28OIB0RbdgFcP28FLBy0/PWqjml1yfsDpiiaUqmnbshCYnASEopqCdYxjUV+wJ/VVuf9YH7Cy1Ou7IbB/wehLNsKyg6r9y0rMl+XGKRCsIf0SAYaDp1d/MJbIiyHccjGmkjx3asbGxKTxSdWaGMeEoyrZfMB2PI4XwVaAGrGNeQFEF79Dagr9VAx9gxJs8tCEX1OSpA/tkdGsmlc1qAqH1vOMms7oMNOYXj+Qf3tJKeB4X1ZsPip+cMeB+hm2mPdt1ofAEwnG9xueErKqeluJuKvfF/TLlvIh60QK5Zkea2z6Gf0IBcjksN1qW31D8+3SFjbUD4xPYy/l/321GRsxwvYCd1XAk5T8eLGS92wubU31LUn6df+tR0tDCsqiJoYYWNiwTBQv5/UGSJOs8ThhLOiGloSBEAOBQd/3gf0LBggJQLfNjl2ofUy4ywNumEuwuwvlVAf0iJpXBbcLNXwdiToVQpNXH6GpLeO5F0CXMDRhIYYoqvY22kBHMRev2+HMMJ3f8G1PwJOFy4/om7pqJboYbB7UrKfO6ZmFzX3AkwmGVItXqVeVoFVl/iNKJbUo1Bb8BwCXIXAQNokIwuEvtYb9+AGbIBtqY3r8sM9/Q00PzVr05U6gpHNGfzKTCDijfszpiia0W/rFNMqFFCM/WOJAnOe+QNgwhGOerKbcaw/7MUPt6ZfAAbB/wRBZiPBdIc8vCxkm7iIhZJZleDSS6Fno0PkM5nDO/uPrSzZ/YwsXbi5ZbYPqGQF1B3V0vz4AZ2TNhlvA65reuXShtFwWveUt2tyMsab+SvHyEXqaigSFNpO5b2Kssh1C3PeEGpF57fii8AtCdi7f0IfBlGuP8MQ1Jl1PW3teCaAtRXNHbdlDQliz4iz96GiRyEZt/taybSyVrLRacSzHv8v318U3MU7fLWdzrmJmIbJfdFlJbTGftwUhHTln+68vbEgoK7axIrprW7Q3lspWVT+DICgst8fG9Kv+rp9QYnBNLMzn4An1Ne0TagpP6SN2LFNjUA4CexTOkwlGwsjez0a2u2cVd3KtZEBCkmrlnJozbrZA7csp4o1i1WpiWk4lFnsvR5ofhW2qw84q/JJq2E8mp9xoIl7N2QHEgNBRfv10atKFwxn+lcUNP+AB2wnoOm09++E+jaaG72m7NT5mt8bGvYkKKeU3me4APvSnpiCIeLrgLchDhS8oPANJYIiAu2H/giGN+rq1pirC6bzq/PyMrl3AZloNrzIZMtsW3h0dszcLE5oCpDUokJ88qXyOeiFsVUxD749VzWNO5wt92QCAb5gh8Q2XCJVTaTeDhR6jL4bHNF91uWFHdlNC4VSMOruk+d6pwFf1RTkmnYk8xo9uuvWcHkgPd8hwyBEfc2/ZXg6SS8CT1Rj1J62zSiyGfucUOx0dEHLTDSRQuDKxIOYrF3GJpNQH4fx4atqPDMEgAtuugDRbb6lW/Vg1hQt9qDks0w8EiAsxo0U4P9W3b01N2Q2nP+LGgA9j2jfVdL1ekN/4hAulQ1u/HMCwNrJulemyXrsi5ZXTMV7Rg/rY1GHliaNKPi43jFSoMV2f7AaezBiDCJnhg3T6ag0ckoIJiaKax8YYLAaeWj9pB9YO2AgbY+MZdrSym9KApuW7u7qBSxc21TRxYOJQoXRBoM3mKGizIhAgijttDdFW+dhmUyCZ2NL4st05csfWZ9THEZri3H0AA8/wgKkCYxSaN0ZmwwprEhT2vTHGIDKqL4npJZRuiP3KE2W7e+qu3T/xwGqjkYYQLxhCn4OlSjmV3YFwDXvivQoF4BtqGelsdNGvCHGDGR2h6JcjutbG1+zO8Tu2NrvWe1t5yC98YACEIQbzGgrrXoTSBU8mmABEHHAQhDCKtZyuuM7/3ukHVs9GR4cw9E0aZHQj7h5mvwhtktBFN9Cmtng4heF6koXRRbt55JatTa1FHypMT8AP4EMEBO6moA6A90Yw+wFVd27BeHTooZXzjCuVH2XCUanqiyHMfrEXzYCJcPVMwx6efGCrc7ERdj+hBNA3HSGE5/C+D1ByPiBQzBl1sujUs1xHgVNcesGOcUSMDH2T/k+C3bSdfncYpW00O2b5tDqKJ2DwfuHJBaNM9MRBoIym1ZFzuMH52+dsvDHmeacfcBSjupuhbf77xVgIetxGm/fusPlW1k49PGlHlo9avs0ARYH6AQSS2A2D/PrAkwkmGVE3pQEJRCiHJJQzd0+72taPxhLAJIwusPFiW/dYjDzT8Tbkjv+eQXEyuoIuNKgSSfoj6hQ8XiFpoBQwvyoUJ+z4o2N2dO2IW/TsGkLe4/xug+73PtDNzt1DiCAMrXn3TMfPPSDMnCOhnLHCxoQYriIsgCGccwnDuNwNjSM6f8dSyfX9M82GM3JPwlFaSA4dP7RnuDhOtLimPtDn8OvZZt39oU0fE5qv8dKoHX94zE48Pm75MuNfQTL+kNeQ9+AX3HkPU4okr4YApPYOgTCRhWUIdpGxNwS/QLUrAWFyduruyVgokQtC4dQKDkhAIM+trtmpjbLr5sFTGyW7sla0F9bXxMQNCae5J+EgFCxhEABGHk+L1umY/inhadF/dm3dhXVIaWCeRHGJy5GNlcfs4NIhGw+XLgQI+QtzGMYJ/AbAHV6gYkarGe72h0QXb7phf4IB+BKbiO8plniPf+rrSvbbeo/68p0QJ2pkY6xTU0gjQpmILzw4Xa7YIfQg8khiYbNlh4T4XxGDpxTeS/YQYLSFuRLHk5ypVGyuVvf9/nwKXR5oSQ8oTrSWzyoNBxv1yIwWAh5H27KtjB9Zsk0wPMJ8dC+v6eW7eo4Hce7HsPm2HrlB9o+EP0pZpqQPdiGc/QkmTpsbHGCAMKVfzlx+qBrwdcVG6SDBfaCViwiQLmoLQnm6uOFbI9hOPnZ40o6cOWBHzsao54lj0zZyYMIXHRHOMxvriqK/6jfQxvoGgZysVD1JmclRp9WhLTwM/aNTllPc1Noz5bI3m0xuAu/4TdoqdBjLLvTv6+Vb+n1Xvwkdf+qaHlg7uyN8KGb/MG2Z1zLRcfNDOL8/wQBKd/uHSviGUveLekfnz95DtJmsrsbNcU9Q5w+QfvoVTqLA+AHFVK4wYtNHCnbu0qEOnhUeODljUwcn1CxFZRa1MhpGOvQEu7YBtQUGY4Hj+vtM2maPTdrBU9N25tLBDn2eoZ+T0NgTyp0BTxdLHd7vALgm9LtyaDG4jVw1JU2EgLIH89M/SFv6sdzYl/nJyL31mgYy2AgMgZjSPgDagT5rYDzHA5f0XbSBZKsfbPUtGNjRhBCalV5qTDafsY1GwzZqEZa4SVYpzY5EbWTQWmKWlCzEScAZ5LDTsc1oSzmRjBTybpRRknugXxa2mi23dUMNzV7lQ6q9Y2ryQj+zDSAFPRXC9gPlBf3LoZArAVxVzUktSXCjCsdOu+eUv3Ob1iqpfeNuZpZretGOYf+CyYnuM4oYZcZv6/kr+v2BCIqDqcd6pn0dCFi7qBkTQ7CQ2VRt8XQqbyjD1tYrVqw0Iqw23M3HvP5lJBwEw/qXf9cDcJ9sMlBI6PxZi6s3bX2jJtr1OI66VYrs09n0eEg6WsyDEo43Z90RkBTRac/p4Xm9UxumxXiGDArro08155sNtLIElj/raAfw1r9V+RNJN90E7E8wcS4x1fHmi35cpce3kqs0+j7EAX1MBNFiJIuHgeEAT1zcE+ngRS9Gz1KcWg+Nu54YcW19vRP4Ev8kD/wqkpZcY9oUpvwYJU0UWegUEJ709ezDCAJyMnnQuYRwIUINCNrBTgGER4En1BbCDID91xgAPcTLiuEL+v0FlY2PUz7074TchgiGtLL0UZYQIk2kly33wFiiWqz7XnwOSnDUc3UjGovyLcYY91znz1t/WMlmLXlBDwWHmzCKCyVbZb+/aK8+Klqr3nItJuSgiHkUOpye9RFyYDw/8c48RMEvn7DsLz8GDGw5d0gKJJAN712wP8FAlA7ujkrcT/UCv7COWVLB4Ayw04qPEjkEPIQ+RzFGraGDRudfWqnY0t1VW+VChIcx6nn5gYZACoMQORz77uh43wMYPIlKymMJL9qvr9j0v1qs+U0Y7PUPtBE6lzpU0PmrpsIUtJ1+SwetU7+s4E5NAEIiiIYPZuU0FtdABkrEz+ZZwtMXDym4T1ZjSBgjkj9UIv6thPRnSh3Gf2gzw4CgJ2yxMifGvivBYPEC09HrL11fcsMISnYSOSABkydqCYcqsC28XwaIAf5g4oS6mBqQabVs9d6arT9WDVEB6tBWISI+U98DPWrKjTFNgNVXhMIO0HjuAJwIE/IL40GMc8QLHz6/LeToLG4MoZU5roBERPgeJIH9C0YMbZ8WZXTdEOfsGC4Y+KwQw4QBo45UXJvwpjljz/474xOuTi6KLufIjKjJyTlKeMK8npsaaBQzWb89A7083w4DOmLCIpxVfVvmJgzVSqZSHfo8K2xT75gsYbXDpUGkL2QBIbf0L25wt4BXOnLlNzWi0HAU3mQl8GckIfqfN4TfEHIa4lNC+iZgQPr3LxiIIv2P6QFh/JyeP69nLhtAtRpy1APK+TXjbn0AMnkJaj2bE0Mm7e3JCXugGrQmJtZFg3lFRZ0zfcXN8XF7dXLK7993Y4kBGQNIAmEIi3DeEP1bor+iPgw1NVeXgPRxCIJt5RzuQDPWST5xEGa86juXvUlKgl5ds3lFz5yQQaEkCIiRikZsqQuqa7OiKH8/b4amDP8BPNq/zh/CAB1gaGf5jtIT3ok4hGNNDYEJDqzO2YWHF6xQ4cDSKDDBGD6jk8fqf1wd8YEm7UOk6/fbMYQ805wl9fK7AfpnkpNrt9xWGqN07JMBBENN3PDCEA3bvQmLcSNftntn79nj8ccaBSq9lKmg8wcIR974xS24h2JPc0Y/jGEGQiFawhJRElTrnlznH4iGkQbIc1IofWB5ZsVuHouOjg82EQR3ZqvpKWVybsFCCb6uks51Votq91leZN6yV6EAfBNqz1I2b3dGx/yeGA7z4XkpN+JCIVxHKEpVaVxCmb1nC7MLtplXYrvzRTjcMCDnEIpoDhxB4AXuNGmE6SeULti/YACId0fQy60LaKcXp5fs+vEbtjK2Yk1NMgPAFC6VwyiDM2AaYiSTCXjSYdo+gWRhuZmDYSoA0QEMYoHoE19H4PplZFWc2LB7x+/bwuEFa26q1AWmJgGiuFFjqBU8J3lAXMEvbjGG8Qd4MsE8AZDxldkVu3X0tlq5kueHyZyjUkVnSwkHyUfH70kROQyhDzTSDbt75I7Nz85bc1RCCaW/F/ANCDfj7x2CexJ3CR+YYFwSir3RblhrLKoxWGAG3NQILCDHKyb93hNM0k7QRzDUaE033SBjUxNZT+v7DO+vYMhgyKTGp2PVMTt975RNtGmE1UypOQE5mc/ngzHyB7vjjNwd43D7Qn0PffrwXrSpQUBuM2enH522mbUZhZHDHkr7ewH7E4xnKIHdgJu34/62BaE5kPvY5qidfHzCDtcO20gjGp5600IYvaQVeAvlof+hmQlN0J4xjl/di/qT/rRZP8u2MzZXnLUTj07Y9Nq03N/fMry32JRoR2ZjDP3C17iF3+BPJeiiHmbO4yvjdvL+STuydMTPWMaZzxjSMmRGFcCuZHTzAdlHib6f4+Z3o7nsBhjvuhtxnqHykXrN6XJFPDuhOZDBD/oJtP23bbMbs3bu0VmbW5v1HWOdvO4HAn92AV2sGwCBKMNB7PNQiCW0dZ0Igz/6/65aE0xMT6r5Ojp/1HIcwCDAFWZzmQKXVp+rlF2juQ3LRbu8sWGHWOpXuN0KB9ouFCFGHmyofWaj6LYFTlc0r5aKfigDCjLsmju09ZtR7ZkrzdrJhydtZEWlEYLJuEP+4CTzl+CHe9KPrIK75PjugoUImBzBdI5L/32Vf/QuSQrBiJrLsH9byBJE0p9EC+eahzunYkA6COWsBPIMp1QUSzZRb9iEhDAuZo1xSEKlaqdLFT8kgXBZ7553BwgFgT+nb58qFu0w5/yLNnTHqzU7UKnYkXLFrkK7WnYbgaRwGAwUygU3yohUEDEEvuDEcBh9PwYXSXcQNw4yxSgDv11wfZfyiwFG/5niQteP+lhCCOcUewJYL/th5J96Qw4kllISBwmQyqtoabxKGvkbhMJ5/dNi1sxk3kZPHraZM0dt8uwxmxJOnz5qEzNjanaadkHhzoqZGEwMA4blWL5QI44i4JG0jcxMWEH0oAvOnD5iE8cO2iHV6PNYzVQrLpxkhadfyrQ5nLsrM+RPgchv6lvyQ7/Ph4GzHOQKPzDG+BP5Y1HEIHQI54cLJqRMxFJ/IOJvinhowqgh/EKFydNX9fpq7I9bD6EAkUgioM8IQvH780dzNnv+gB176YKd/eQzduGTVx3Pf+JpmzwxLWGIsQqHcIYdwEAThsEGli8YWTSzGSuIxmHRP//xKxFt0T37iat25MXzlpset3yj2RFOMK8KsP1NQN5U+FLX9aACy2KlX7aAO/mnuceCiGtL2ArIEciEuy0k4YTrA8MFEwApExG3orI6CtGQTqhgEI/K9Kqe49VTShf/egGfUprRr1/aKDmz2evPgQh5DkOol6wp3KxtRFjfiO58EbDs7weaqhnqmBn1gJYYSxMGosvHkGO0kBd9jcUaZdEVfcXRErbL65ZhYKH0jrYiOwS2ulNTdtAnSyCaZwri1/X8UAiPUISGVgR+qXljFd6PPL4gv0fiCKZOdAlxsF6we8HAgE8pAqErxZIQV00/KYMEoIfYBVBbpjXaCgcwkE7fSl5rWG1hydbuPrDVuw8diw/nt6mWsag5rr6iXwYCMzFbSmo5WZtrVBu2du+R6Mb07zywtRsPbbMZnS9AeE6bnVE/R63ryUAiRm/3lvLM/GdcDoRjRKpf1A3sLEu9rJcPyw31SCjQrM3Cs5DIHtAvXzuB9hxrjzAASAIRsNpKbUEVgM5/KES5ZaDWuQlDwKTPL0XgdKYER9ISmOvlY8AHQwsmjVuhtgPufj6NfjspkiNHkyRp+7ME7ZBIOoaBeCWctoDKC5nzwp9XmCNbodxQQxlBIeYXhJ8SGZo4mjD4hzoARVpPwhEMF0wy/QAdOn1IN4ShIG3ujo96gTp95Rs9CDqXcAADMkLnj7KsxrEiMbLtm9MrAqDzL2U1NuvHOAHuy/kuhZciIKpaqWHVQL9Ud9Mlb4LiZgi+lzNROxm+7QCEQQojh39LOO0xHBLAKzxhRZnRGnf7Y7Z0WV6X5UkZ6/okCburMdtyFmMvoHoCYRV1AECC2sLRuvdHRqOOX9BqblplrWpL99b9koUIV23h+rIVFzXu1Dch0Q9GR7Y1U0mIXKODrjF1cp2/oLaBkQe0Vzv0uXChuKg+rdHynQesBqyrwFBoSCMLnj0BxqsGuDFGlPztQEKX5f+n8me0dlHJR7HIVsB+NGPYnWC6AaK9EhIAE1n8CTcgAXjlVe3RSPoBDBJOvVizhdsrVinWrUqpVmn2X9WgjeWy1yysXtbENOwE+h7AIOIYaqxkc36uP3GlJHRuv8AqBgFRUyL62JXVra5fGEJa0JZy+XZfoQD4hcLYDRBSAfVR7JsKyv3+aC+pQbQ4g/gn2LtgSAzEufGCNrY7AvxZrpngUf/UMXZDaOr4S4mkZL4xWXAtYqvedKMLRms0L/QHXB3CgQzo6sMBDO9MTEQ3lu8k7xBoY15BWBeOBIqxBzf5ue2aaGMVA223g5bgSuprOL2cQyFYWwtC5zc87wDSEJDWIgTm7Lbvy5EJJq2w5n4+l+F4k/dsVBaACNBvc6lAQRF3Mx5/htQfEtLR9SgZLfoKH+5EeaEGoEV8dXLS7o+NWs075+hTalFIJKrfRfUZ4WKEgUqzONMwt5TO2tuFgt0bw7JGfY6aK2jTT0U2Z2yKSnl/9K6EwnH1HGVPvIF3LP+3VAUpbNuAVwLR38xGzz4iU/PG5T4e0ZTc1vT+jt6xlqFZo68OxHvA3gWjqtu+otS8pN8J/XYzXiWmfUHu3MQUBlFdeVlOPbbamFKmb0lbpMrldqRR1ZxJe6sQWcxwOMJaLmvLqiH39MwxJT+RUJbyeZX+AbkKoCCECsJ5S03mawWuQxmxxyN5pw3Sx6HGfk3CQyibot0Run6bGtmt5FesPKNJZz/BYIihPPuchX8I/Iy8PivPz8jvI0KGzVysx9CZQttFKgl7N8aAWPBPtq+BT/gjbsIkS0XCGGN8fdwOtQ/bifvHbbQiJsftkY+whBhkBEOJEey/1HkzciuqtNOJw7R+TVhPUFiCY4zPdyNt6kO7M+DAIJB5EWpmktstlMWRJbt36p5tzGwofXIkEDUkFGvSrIS7X/hW4E02YbvAhUu4bj81JPs3xoAYPOslFIBn8hva2h5Qni3bw9mHdv/4A79tImQGhvj5MGrmwuEIy9kRv6mirBKPXh59/Z6EAigdDN7Q6ZMkLG2oQcvZvNOHdrOdMMQQUOARypKEcvf4XSvOFTsFqAMhf3J2P96Dm8CXdCSsbuwO1wv2LhggEO4XwSA/QMyvt2v2cE7COf3AGgMOYMBstlNDhB7mCZAauUU7os+znLfC8azIFkeX7M7Ju7Yxx+qtQOEck8CHQPRRBN1uvXAI7E8w7wUog/VUzR5NPbJKPpqx+iEIoJrBvhjCPAn2ogvG/hSOVrZpj08+joSi9x0CSQKCCBgg6dYLhwBRfjCgxKVraZu8O2kjDcbXKr0qSX8ekMECY7KJ9IT6OmaQnrz3FT4YwSAUdbYHHhyw8/PnXDDk3ZsYMYX2vReGJuhJcQdtxd1NP6Oqc+LhCeFxG1uLjm8cKCAnEj32hOA/KEwC9i6YZATdkQzyA3BT5nKpnB3cOGhnl89YAQsZOkV50b67Xl7NCkdjcTBCwExqs2MTsF8I30MrSR+lGG74+ZhGv4yyxsqjdmTxiB2/dcLG1zSr7penOF+O4T0J4T2E2QXsTTBEwBcUoPBlSAjI2hFzF36BkKAAvCthh9eP2tk7Z21yE9vlLaGEAxi44v1pdPIbEXJIAnYA4YaM/QiI8HxbaDVcMZekzzM7mzH2oLoE4VBg8q2cHa0csZP3Tlp+PWpyOxDy52GFqu07IIRRYdutUIDdC4YICM0wmNO3SX2IKCQMPUPYnENCuiFO/NGHHMAw3hEKIyWsg/wABhi1tu4HMHA4QsAL6xv23Nqa+0+JuTANYe4GEApM54AFzhK4WCxtp69nLnq4ItpcXZIWbRcOoHTlc3k7UDngd97smJuEVXUUZczqWX4J/kEo+Ms9dVNf35cn7oQJ/j2AT4ZDEAoFBl3/vxNiXJBkPssM7HX/iiLnTHsS2A1xYvKVkW1zAmoKteSl9TXfVl7QxI+LEbIx5vIZG8um7XC94f5cMcLGWJq9QUAMCI9ayPn+1IqDojGeTfnO6Ih+tEt6Qm7QpgYdq1VdOFsVQEP2jOY5ja4DGIifJahbwj9Q9tjvzxJ/kuHwSIQ4fMH+SM9ckp0s1H1guGCIBCLUFE55+IGS9pawIhRD3Y/SQqRs0FkQIiAMNjrFLgFyDkLhL7VmqtF0vfwMii8JYOzQhF+MsIUH7eTTR2zicMH1KdxqwekY1LR+tcZpCzHq45gTmM68nlswDpw/4PSgfehSRPvAuQO+Xb2gtEAbuzO3c3ZqW2l1IE4QIXCNMTvqrmnmvyx/BBUgDpd6qD+EQx9DawNR/AbAYMGQDgjQRHGpAFehYy8GBMJQUO1Jl/XA4uVfjty89LAMAwxIBOrlp0rFaNu3Rmr5yVGbOTpphYMTwoL/TgpPn5mzmSMF19ujX5lVs8dWdG7TiNm1A5iTcADDqYpqgIZdbZX62ROTNiUBnzg9a9OHCjalOE6cmrUpPXP4A2WpgCVOuexC7Qnkh3zf0ONPowKanpDYWV4IeQ2JoqD+UAjhPfQzkB8MhIhLhh8mwNW9SeKk/bya2s+rsX1R6ZlSivTIxtCe/UwMpJsSyMwbIzz2SALhAIZmVYKqNYRN11wurZYjq80YSAIlO9EiboOIvgYaEiBGfK5Q0/+RsZzTXFkpW73acFwR7WqpFt1MLiZz7O+UBDrWiowxdgCkRM/5wQUTn1dcR+OEhPTQ97BWSIFWYfZTZsNus13AcMHAeBjNBQLhKpIkENGkCsTTKhLqgzjoxxPyobalZuJc9UkM1vVTjegAho7eX2F9ZTb5kR45HcOdo1evXYexyhyg82eh8lCtHgklBmhwCkZZwoEO7yUJp7xe9aX9aJ9/2+lyOoYP5bsjEE9Qd7TPKiyrxiqs7REGMnwrgKsKk7ot4amz99X203ILq+39EpyA4YIhrmn9fEIP3EQex70NJBM/Rxk/bM2E3PXv/dKAWsMsuxZMXxKQQnk1it6E5kGoXxRavhIZA1Gxa5kRV68kAYjM7/J3Zm8ByrfogIeYtt5HxhUf9BNhWUvzEWP83gEcwDH9jBMofgdIIkl9pAcsUqk5WMdgV8bKEwoy+uRedhMJGC4YAOYyvyLRRNwNuFGzaO+5pZsjPBh9fEPISK7HN55+BS2rearSRofqII/sSC46y//uaucAhuV7a36ff4CcSvfj/DCdv7l+JZlJmN9ExfwgOnzBD2DQM7YGbCvnQ8KjZmB7Ic1a7xgEJJl8AyEQQuEFq1Q6ewkBnX/qO3JjLRRbM47PQv3el/AwwSQ/pPPqA+l3VPI4Eoo2VU1d+7wqNTWG66DUufeDWBSuyoU8wnFjDLX5j68tOvPWHhdtVbhyf90PZeAjEh3u9UdN0DMGwsmPM/2xD/AwcqMv4SaM7bQjg4wK5wiokCAUlHacEUCtDoOxvoA/ZYZfBEVmKJC0MKjY6+IHx5fgL/Rt5xR23vvAYMEA5CggAPOTBBVB+iciw8U+1BKu7OCXBGKH1lOggZhKvvyvjU/4RlWC1tXWP762ZPUKF+1IUCjK6IT1XFONQdUMcAw8epV+GSAGaiQCfLUw5cxOo1+5s6raGPUngTZHxHtt1FCZGnhLacFOAC1pv8HFNiDhoWlSeNLqhfPXhP+BHP663DVAcDsJTg35tNywlBkAwwWTBHhCAlCL8qXo0zS0nmt5Z8jZXanfFr4mPKZOj7NlaqRUYZOgWgHrAvMwmKDWIJyy6FQ1IqPkOhJGyHNbWJYwMJTg2veBly7EssdSZn4k7wcwYOxRq7XcdIztFdB2RGhyQ4hOW+lAkUYKYzLRkwIrR7FLDGSFBKoQpi4qDIYqADUGGwAEgOUq/Qy2EoziOM2ciAfA3gTD5AnLQ4zcMMRQ9fTRyVNK7F/U+0X9khAOYfgrQkZwPZi3vrkUXQsSA51sEM6bUwWbHx91JoIckMAvN1Vw+cIPpqfttclJ3xY+LPEw1ZVhiopt43z7SAJaE61AuwZ9va9yAMRkwd4sTGraFl264ELRL1jJaXg9W98uFgLIwQ/xwTiFgygQBkC+6eiZy7EKwlD5Uwr7HB/oGX+PoDfsTecPQQmHWuKzYAiDcIjRB+tBrDDq2Q01ks1eQuc/sTxh526dtYPtgxoVRW6Aj7BEl1v1JvysL+Wn3bRSCmMmmJN2SxnMYjtbv4eBwhEU2s1syiePzGvyYgzXBOO5niPB0W8wxCBb/qFgY3TDrs1ct/VjRdHRh3ii84dPhOE98AyGBzcgpuEAj3inTCbDBFBy9q/zZyisMbt/GQgTEUznnB4JpD0qf1YLkolKQOlgyW5euGWr+bWo5sThvKPd1BBXucTWDLyjTphfrsvCnStHdi0UQGkkmXyTVw3HFq2YzvmNTVyT9XBk1Nb0vpbRJENCCXYBIU0bY2W7deKOrR5Zi6YE3UBgwtKagDwHvgDJZ/wDiaR7D9ibYCCGEIggAG5gSBwRJ/17gcKW5kp2/eR1W8ouWzMTTfZY9yJBIVGediYSMQR3krAnFAkQSvRpoUbQubPtgmeQRIRvWqq5G+Mlu338ti3PLPuhPZ5IsBsCgQ6hLhjm3wP2JhigXyTd7gF7AZlT7oszRbv59C1bG49u8WSvC2tf/AZkITE8d/vtFfk+IO9J2klkja2aqtqtQ7dtcWpRwlNp6yWQnyHsXTDvFZBRCa4x1uisNmOHvA3Fjw52+71X2IM2TWpb/VC1Fg2rPwj4QAUzWhn1o+SnS9NeuZBPB7v4sc3vPUCfNIJ9aI+1lbalMza5UNC72NSv9v+M4P0VjDIccGRtxC7fumxHl45YrslwJfJCHoygIjMiuUhCbk6EG+gh9wfQ53vouB5H9JO03Q3QrwbMdqA+Z5eWLtnB0kHNc95f4exNMOSMxHV/lXRPYjfEtWC0OGrnb5y3ufKsmhI16vq2IxQxi338YxrKoublMGs0irynUhpCiy5M3AsEgfCbFv1RDcEZKqP7h/b4ZsvjdHW1wngyFQenok/Xpu3M/dM2uzbrwtohHIiCAH690hb4sYd092JfbyByCjb9NMqfkCAQKsxZmKswTAZZsCOHIdFAHNulu5ftUCuewyixBCFoSkzjpAq0mR9dXfULEp7aiC5K+OjaqiuvjtWrxvbz3dacKIltMZl7lzm1vCTaa07faRfX7SOrK34GAH4F7gxQurz2OCPbfkHE2Qdn/NI7JxggPEte/ozeqtc2SNxQxWMP0aE7GHYvGISi0OxXt/9VzwgiRMBS/w/0+nsaen5TyGqqnrcZJgA8CwtNlb54qwXpDkK5IMY8LyFgIDFZr2veoVrSavnvZLVhl9flv7Zuz0hwmBt5yR4A0HbeKd3nKiV7eX3NLq1v2FStbhOinxFdto9P6p2bMa5IUM9vrPvF2dwz49/G6R8rj1t+iTNv5JDME9kgIRxI+rvCm0I+JAy/HFDKNj/xzHnHPsxQqjyC3jBcMHxMxDCZizfZy46lB7UDYZEA9EncgkHiwDeFLGaG+QxhEtD2Fedo1Ym/QSiXxZgJebFzOT0z5ZgBpydtpDCi+Ue0KnCqUnFzJoa2w4DST5PIOQLcoOETyNGcpUUT2h4Pz6N5PxD1oATGzRnsWk7yzVPbRCyJzPAoPmBo4QcsiC/YQrg7nEUNjz3Am3JXs4jRhm/7Y+l/CAwWDCkjElXR1O+KOJYeNFP64fpejwzhoARC/8Ay9y8LWUnlIobotKsesJXlRjbVEQqk8tOjbiBx/osv24Vf+JDjeeErn7pgk7HOH+BsAFcZ+9tOIAaYiV3AVdWwEVaqM2k36Djx7HE7/6Ut+hd+/mU7JrfRGa5PSduJasVNmUKf0xPgHEKhFvypntGvACQPPxJAIZU7h4a3/4ocXsIrbamiAgXe9oHBggH4GMnDfBYv4V4CEE5qI+WryOkz6egS6JNCNjfRxAEkYgDQ1kMWIwuauJGJnLWX5i1bWnbMlFfEg02bkmAUoaGGpuacU59DrelHngPi6JNYH4PBGE1MH56wXE7ZqKwm6OtZdNj+R9+iCuy1DAPBnszDDaTPQCCnhEdiN33rPKF2UYM4Oxg7CU4u5+KFL2kAw7nUwAC+DBcMH6P8+oti9ueEuS5qvMZHcOTflST+Zz3/KyXu3ypBtKUktgfwmajZaLNtI2o20IN4UHmgKW2srVnl8VIHV1dKbtoUB/GNRpwn04e8hwE4Touw4R3ms8+zMr/coV1dWLZGpe7xsnaHEDmpA9u1TdWaxKrQFpA3xgKfl/+XRJ2l/BAJQDO+ovg2VEf+JG3Z/zFr6a8q/aiVgX4Jj2F3gmEpm2aKFdVuguSCEdiMxgOTGhGw5Y1S9BMF5Xj50A/1AA6g5ooqakES0MOjIFHr4+hpSOjiA1CyWdQcBKKyg77bD8g50Oe0cu4NcAWXRxgVEtTXPOCyDYIDS/nUFnQwOwKpr2xnvCXhvhhuxti8L3rflgfXhsG3AdwfLJiQH0JBqEfkfgoEpz98TkF+ddNSH9JHf0HuqFL/WCTy25mSBDpiltq9YjlDeJD7mAbEYjhmS42aSryjmqMWiYiSxcZWdiJjl9YPlDLXtRA2hPJ5YiYjei0/ugTEnCmbwzgjrrUCmjS2FmLQ0TeG2GPbdfkBcKKZnVa+vqRftJnwia6LQ4FQOPYlPEwwQPg45tsOgFdsk1ZkHNvhq7ChZqFK7QN4U+JR+cJg9P0IB+bX1qp+McKjdxft4TtLjvM3V2xtXr2tviEc38/nMZboDVGyU7aSy3sc/k58laYbeTjtd0U7Ri5d4MIHLGYIvCahsIuZpSFfvhkEUWRbQHiRac2qyCGcGfHlqNLMreWERUXSL+ExDBcM0Cvi4KaIXcfPEJnRiUYitKlu8PcpvcfKsW0QZ5QfFFY/np5y7SRNR1VCeXRt0VYlGEo1p1U06y3XyReXogMYSPSqmLYswWAz0J08BxFngXJRYbAP4D0loS/cWfWbMKiB0A30sSfgUAYKCCpmdjdjUzBUKABhAlL9YTqJvICTBMI5ZljGcEEFwEAh7FruQ393gglAhGzBoG1Fr9QQVVHw5kt5T31Dv5pkpRfkiJr1isLUFaYr8pQ6X/8VUmtKmawzAvUxxnjNCvuHJQD1M66P16/+K9ORVvOBatifzcyoGZU7hHoAwWEqYbAl4HgTbl7CwhObg45Ngdz8F8KKG1Uzly6wZX3bFSg8QI9wSQjv9DMwWwXR1e0QvKrPrupDzVtSf6xfOv4z8ke9jPHfgFqze8GQACaVWGP+kl5RHeOmxNN2tv+6EOvL51PW+rwmZ4zd6ZgJ0w0jfBRlGe8R9Ufst//e1KxdU+muq3NmEspIjRIc0o+O/pqY/JNJhKhmJnbvCSJPDAinqU74p/oG5H4ABh3QjTbesjlWtUTxITwuXeDCoJQihX6USvFQtXkzo4LRPQhROFezY5HJKUyX9MxHZHFMPPiw3r+g9w/pnWPDfk7vDKZCpkIEXaCWYZc6/5AepZYW20cvCTcHBljBr7tEINS4WTtSPmqXblywHJdfxwnrpFONOjbDDHMZrrpgFAaG3hsds7KaGc7KgBe7KlVxMqFB9eRCOIboLNG4JYH+IyhOxMBqs93WcNpz0Umamzk9aj+yW0/ftvqERp5ETD8aEkAE4QOekyA3p4YA8eSbECZEEED827/OX0Q9gmQC4CooPnvnj2CTQumCxckFe/f8davnqfdR6kiI50uMwXTo7tion4LxI/U/nIjxzkTBNuROD0MrseuEO2OUJH2DPQFnByyM5O2n0Hb60/aqfjl9g7P+Gb95WsifEO3l2ti63T/3wOrjLBAmIDA2/PYC0YBf3rTBF+gCg74R7F4wgRCEk0xPRhAENARaKrUI59r5G1bPbWUWUvQ5zngxkZ7GL0ZIaT4gAbp7yNheAMJCvkVDyYlPmEuFSxdaKgwMQlx40RdeXmr5us3PKZ1nr1l5rtybW+EDIKQtjq8DuCd5k/TrA7sXDBAiTCLQyz1gL1BCO8K5KOGkInutJHpTlUDe9f/JUOnxCqqXJH2eu+k3s027ee623Tp120oTpY76uyck8wsG6HYPuAvYm2DeS1A+Ec7SgSW7M8pStLogNYV/LlBcqaUatj6zZtXcELP8nxF8cIIRpDfTrlo+UWO9J5p3gMxN+mEIs1/sRTNgJ5yanNFm3o7fOmYjZWxd33/Yn2BCfQ8Q3nthH8hkMnaicsLO3DjtFzBQwztN1gAMzc9+ENqkKdBKPnfTzm5mfI//6flTGt2//8LZu2DgYBhOKwOOqv49sRtUGgnPIuLR9WN2eeGy5WuMq7dIdUYw4g4KtCSyxL+LscUO2KKtviPQ5hAGNaWonKFNH9Lpn+N+gLsHjqxIOA9O2WgNM9PI/f2A3QuGRJFgfpmPJBOJEOBvEnHrph6/Hy0et7O3zlh7VWwQTUiBMC0rRl0olXzLOLr+gKicsQfIplrOvGT0gyDQrkuoqKO51RxaLwk/sr7qOn/e0fdzWkYQUBBOtplVc3vULt64aPmNoGBKQIgAiL9xCO64BffwG8IPgN1PMCEqgql/rQf2WP6aXg7Ljb7xnwl7rYn9ivCEkBUYVANxmA+//QkrlLguF8H4wry1JBSYxgEJYVbeDSSBTbR/fGDO17EY4oa89gOo1JSfsfamfWxlxSYb0XIQHpQTn3j686ZVM1m7NT7mVzMyn/JyFCeDwcBbc2/ZyumVqEazLBUKHjRoDeAFsku2FkSHO3TgK0s3fBfT3QZ7nmASipk759SjS0BnTULiTKFW9rvtwUUhV/3eFQb1cxdk60o9DX5CKEerdXt5bc0PsM42Wz6nSCLCSjc3/WTzT6ys+qZaasEggDZ/MU96dr3ohy9weyyfhYyrgvhzNpcXr9t2uVS28xXmLNtrjnKi/KT9twM8IgSYj8HFbwo5HQMgkqKC/L4CUXDB/0XILuYk7/rAYMHwIRGjVv4XovUDUQs6f/4xKSAB6Pi/JPx5IWtpcsvMalJ4UG03epku6BxkIIC5nHjxobXVaBVH/c/04YKdee6onX0+wjPCk1ePWOFIQeExxKvbRxSedYB+ecPd/RTXxyRIDmBgl/Tk0Sk7+/JJOyea5zyOI3ZO7+d/5aM2fmjKcioAXOhwBO2l0ubC6QUuTSF6/2+JF98RUjBrMU/wuyHEAOOI3J8VKn6/9phV5iCcPjBYMAC5w46Mu08+JkxWUwAKLwuxB+AwTuyn5Nb6m4qZ1dYhHQKyRXfPGZgsWk5Mj9nM8Sm7cunwFl487AcxzBybVB+QclUxtyTxHQbi/cgzWJhTONbdqJ0moXP4wtjkqF26ILqXj9hTl47YxTNztvnogdLasuZmdNXjZfU5XJfVE2AozF/W47/Qy/f0nLQngyfC1D351ZW+UypA7Prminm9p5bk/sSCoZpyh/KvKoIvKIJeOn9F4PvcHwh/KAeOVOfqeL7tCh4AZ5Djdbk8gZoAcAhCJpuy2w9W7dZ9cMVuC2vlenRAgsBJ6jtuSBqQN/ebU+3iq8BiVAjVjYrdfgjt5Yj+vWVbubNkbTSdxKEPObpkrNG3vkSJoHknEnZpo2IOANPJO9v66IvU4riFEVYzYdMszUMf3gDDBQOwTM0WPzquQZz410IS9FeFNHkDIgYo7ZwLg3C6L16o1hqONfUloDsmgAMYaNLYjNQLcKUHOyHhYX2TDMXqd03NZ7XeEjb13PQNsgRqq38jLtJ0uFF1+2lfxkkCxGD+QT2i7mALPbwBCBtaiQvCp+X0ruL/moblCynLvqImB4HBecL0gcGCCQmiMA8KSfPGqopGa6nn9BEWIySO77szlQBm26UUevXtQFsM81Az50bzlhvPW1a/SVro8dlphuagH4gVxsnj23T+ElJuTCNCpY/zBLAtQCjc5uSHFiUS7U/hw24g0ZR6bOeCIAB++QbBcegR/ckBOX1YeZptW+tVeWBVFML1geE1Jnzczb0kiDl+NDphqLpdq+O9ALJgRc2W3zqRABiGzh9d/MINcNmxlWha+Jble5jfD0iOH3Adc5e/KLwqaxV7dH3J5kX70TtCxcOFDvhh3kRw1Mv3RyUsjacTY5XtgLv4TJgkcLZBqpGyzA+VL/m72deXFZizdkr6valA8GgA94cLphd0J5R3hob6hwaPf7sFmgn0IezfR59P6V28uWIrD4vWqDZtbWHD1h5v+CEJCArSsAFtJhcjsLa1nS0R4MaaFyeSb8SCp5Yg8Ptvzrt+H2FwyA/xFJfLVl6ruhCYKzGfqdLf7CYrvRLAdzCfskTtIQzzOBDjc5r8AbA3wRAJEyja05BgImQkxqiNUVivRA6AvBLIke5vYzAh4J6Y9YWiNzmANzUITc0Mhnre1wivFSYknHgS2AP4GiZzDcpbk5Pez4iQlSSAzbhfQk0cxaMCpWbTUIUrY4tqIm+Oq42itnjIGEKehwHh1IpsHhJNjdZ8OP01UaJpo+k9I2QQMIDe7gUDEZj/94X/QK9zqhdkEHcJpP239f4f64URXK9VgCTECYpYoi5ME9G3CpP2w+lpMa3l14n4mF9M20IlVgKhiSHc2xMTXluGAWHuSvBfPzDn14+4HUKHdhRGYvHj5CH3rgoINRgFGpPPOEgEDATixw7gAFJgYbYqpxtjZIVflOAvpiz9WGwO9s2acrRf0AdUYgp6H9hbjSHl6kPakzHhkEqeGbmhBw+dceB6D2i22DoQQQhGO83W8a/PHXSmY62Sps2Pm7iamhUOUPjW9JyrndkKNizx0CUMgl/PZO07UzMS6pQtMGhI0GdexHb1b83M+cUMHCdPbUsmv5VrWPMgJ6rLI+QbEHNZX0MI7b8qxGYbEK84u639K+rwmdP9Jbn9mty4Q8Zn0h6qL+x+rQxIJihASH3SL5mj4M6YnzUjcWq6PG1Xbj9rY7Vsh7kEAxllMfvGxuyQhrQ0W+uZnNU0SKC2ZMVkwu2tRG3xgeUf6I9qIDG1GW1jx7CPpo4juhgpekHx0IDmPbmKvXPmmq1Orai1EyU8KYTJROAW8pqEQCjpH363IolALfX+jDG6CXW/D4M4tvXxdXv14g9tcWahwzBIgfQ5rLFhcsRVJdSOsko775R8wuxVKADf8C00NlXboIkFKCZLddHGDaGEcAHQYL5z+pqtTEsoXj1iDyAZsJdQANxBMhqegeS3PWDveYRgwCT0c09C7M9aWTVfsXfPXrPFWYQTpRZvEhQQgztqSNL9SSBJh2foI6jglqRPiqr5moTyrq0UVnwA0mFqEiDUDbj1cg8wyC+GZFred8AI492nrtnyJL3iTuhm1nsJ8CbQ38EnCYAbOl67+LotTy2rOwv1ug8EQQQM0O0ecBfwgQqG2Fu3WjZWDOsZf36AejraHvU7CD4I+OAEo04+cy9jzz983g87SAItRi98L6AXXbAbso2MXbxxwY4Vj1k2HYaa7x/sXTD9ctTtnvTrAYWNgr3w+AWbak9qWhHV7+SnfuaL+OEYP++CbF9IfosOKEk3bBfs0FZyvMZUR+3U7ZM2W561TFqBuiF81I0BevmBu4C9CSYQJY2hrQxujM1BZbQvqLMl/Gxzzl5493mbbBd2CAVmsaJ7qbThJ4xf3tjw5yPVSHEVBLQfQCCc93CUncmiG+ij79eExuMO6Yjy17aR6khUc9aPGTvEdgDhyHPIO+8dIoLgD/J58B8CuxNMiIjIWecJGrgAtESom9HWsb2PNaKw/yMJcWwX3n3a8o38NqEwf2GOAbO+sLToquBn1oT65Rl9/ecXF90uAObuIm8dICzfsOH1Q6ur9lHRcvoxcnbAlxYWPW4EhACdvpJHCqk5J++csIly1zZs8iP0TbA3FZIVduZqCAHgY/HJ/dlFxl3+EEZAQzIwXDCBAJGx7vPPFMlvKxIEFGoJ99T/T8J/KfwdBf1vFPgHsV8SSKgQyxOfWgv4i1CY8H14dc2eKW7YOLPxVnsbsmkVTeRHxNRXxNxNCXFI3hwIg8AviOlY3nBGQLvR6qK/aZl6U0LasM8sL7s1jt9jAwHSrKeMJsO5BRUml4Sc4ByKUfa9/As9k3d4wOZgttaTdxFIfVv+uP2Gnn9Lz9/UczzRHpSBwYIJHzJavCnC/40Io2aGMG56ZSkl+5viLOtoPycG/3uj1lprRYlAWdYL5JUEllxeLK5FTEunbPLAhM0cn7HZE7MdnDk2bSOHJo2Ns6erVXtZQgxNTz8gifQfF0slv+WCncibuaxNHZkUzYj+DHh81qaPTvmN6LP1hp+8wfkAOyCMmuEaeb+rPz/UK6vQn9f7cc2J7qZt5KsjlsZwA/8fKyznhLKRS+B3+d+Nnrv5kITBggGoKeyEQjuZ0GDSOfKPHWOtogRxUh5fksw+UvVNSy6UFSElp08CYKoKon1ETOZ8f7SSaDKPXDls5/7SZ+1Df/PLwl/0309+5qIdvnzI1QTsDONak14mTt1AGA53cPsWMf7YlYN2/LkT9vJf+5LTfkW0L/2ln7MPf/KiX+5Q32z7BRAn6xXv6/rNYHxDLHr+E5LXpzRFZvPW5xV+XE1hpW6bJX2JUJREP033U3rAZoKVDWwBIDyg1gwWDAzVh34d7VEJ4e8rAs677AIalfZDuXsJbkfGBnxX03dxP9IP8KWmIBSWewuzY9biwutXX7U73/6e8Lv+++6dBVu6JUnH0bPehblTvwMYQm2hY+dUjBCG0t3YKNu97/7Qad8T7dVXf2q37y16mJRqFIUDS5lxNZ9eK7uzIOJu6cPW+V8XYoQCJ+lnyToHLKjA+ZZH3INRCoWcSOiDh6zADxYMREjEZWXs1/XC6Q7diUTje1qOCpf6rySI/1LPXHQzBCBNbcGgQnnXxxFhzgXjdL2W3BuqFR1UP1A4oFFGHD/KrEMDdP4AQWma2LWcDIXKuqF+JNBuiU5d/U50AIN+FRg1wDHVGi7H7hmDHH0rPQKiTHGP8p/IHeY/pXdJ00/UFejJ3x1Yl72jb6LTJjv56YbBggFIFZHBvW4i+CG4v6Va8lF5chv39bYdODXkGG6HiBg6lh0gRlLTRgqjHcxPjLnaN/iHX0p0PyCUhwzhY0DXMzIB3THH3OiIbSyr6RKj4y/871DmEICA3Db+b3EQ/KKcTsXx9cga4VOcZNQ9MOqCwXHH9B16RRIA4XxOAf6env+vZsvHlqOSNBDavpKM6jcZkue8BAGTHr+7aI/fiXD+mpoajaCiQJFa4LYYGg796QUsjrLpdrsxhsqZ4sSW4PE7C46Lt5dtbEoddkadd6zzpx97mNNARr89Y8BR6HcafE1Jwqzr35fbVT2Td5JKGB5JN+8ghZyTy1EbALj1gOE1pmeqYsCPEssQ8L9QHJwCofZ088e0a3o/rKrOlvMewKcghhLcQp5vhVFQ26rFit3+8QO/AWOZmzDAe6u2+rDYyQj9APv8++SrQ/vuyDjlpgNc6rBwc8mWoB3o31n1+wSaHCsi/6yaumomYxUJyW0KekUC50jO79LUKQBWqMFOG5QANmcVM/3JssLRMnAoENlEOCRwAAwXDBCI9Eigq2g5aWhdgf5zOfxfhIzI2F5NpzcERpSJH07NOCOAjeWy3frhAwh76e2gOu2VR3Aiqi0c2MA1Ja6/8S93An5lfftYYd12TUy/99pjP4CB5iydi2gzWuN8gcp61WsN99K8WZgwLrXrKxSAe8foK5jT/abS8f9QSv4zPf8ToeLe/KQEo2xl/yBr6f9WH/2ZPh1XH3pVRKHRY0QeYHeCCYDFPgnF6lCdfrh+ww3ezilhB5WRspD+RnMaLzmE75U5QWDohhj0tdmDKp0ty6HzhyEIPIEEhokIhStEvjMzY5luY4kE4A4S5gcz0/ZQtQvhQDsYYWyjrzQSN4J/fWrSTZeCYm4HkB8m23TwmiakzgiPKKSaKI4lSY3HX8GnvyABnVSjykEU2Hd8WsJil0TgSc8IoL1b1TKEICJReua6myi9ejYoBerYvOomAdVyPET86GufsfFGlKIQihEau4m5q/Jpzf6700u4mmoV274Ritt7RV4DoZOK1Kaf3HeuXPEdBd1AX0ItfH1iyta4gpHW2PMk0G+dbRjTb9vyObZhyLMgP9WuHYMihXXe4CaEV15AAYX1/idEn/wOULigWt6bYIBALLwHSEbS7QckBHOwcciefe3qDlL8snyCWet0vbaNJN337dEJNxAcVFN6QaAPbS5zOFkrb5uc0hdxqA9NHkPrXFIoAg5geFyft5vP37R6QZ0GHkHn3yshW6QjSIZJ+nV/mxDM7puyQATC3REDvdz6wPLYkv3wqR/Z6EykIIN0QFTJ2Jm9MTlpryfwjcmCz132KhQghKdpqogGZ8Ukab+pd/T/2JH5ZijlJXzjQmlIKB+XUDiPrTufgR9J7AdJvyGZ2FsfA7FBGKCXWwIY+RQLRfvWsW/1TGtOJQcBJTEnHEByKIRvodJNO6KfDBNBS/2Z15SXJJR0D6EkPxiEAXq59YG9CeY9BMb26xPr9qeXvmXlTVZFI0imvRvfC+hFN4kOEkAj07S3n37Hrn3kmtVHegjlZwwfmGAAhNM41rBrhevvd76HQiVVtZWZFWvtZqPnzwA+UMEw0TqxeNKulp+KHf78wERr3M5eP2vZYRs9f0bwwQlGQnnq+hW78NY5PWY+iEI5ELgB4+jCEbv84yuWK2r8/z7LZ++Coc3phd3Qzx2gpmyctKcWZzXK2p4EPqnKvx8+CUCb+VIvumw57yRXpYSCgrbyoB2wS29dstxqLJxkCeqVx+CWxCT0cusBe7ddTiq+mJckI8E9vGP9zjpRgMQ85qnbV+zw6mEfDYUtfnwG0wBOCUfFHPZl4sfEkv0wYdFzNEzadgGE9zPr9MD9zOcqFVdThyKBP7fEcvwjN9kml3mY7my2N22xvWTvXnnXGgVlgg/DPCbJD9IUeEdecSdP/IZ3vmGCSaThuwD7mscA2CLcF71XNejE6IIlGhIWgMgCcGEp/j1gpnjEa0q3UI5Wa/ZrDx/ZC+tF93PjciG6EbaDf3ppyX5xfsHDBSEOg0B7XBPLLy0u2qeXl10xh/IsSf9MpWxfWpr3QpE09iCJmVTaZjIzNrU4JV6KZSQb5PGmePFP9fJ/0/t/pvd/puebeo4FxKbY7H+etdT/XeH+M+G/kj/ra3yf5FcX7E4wECCi74vefy+K/0rPnEb+XyoiCakjHCI7KkRh9A29srCZLFExtDWzD5AUyqfENGbhlWY7OuGVk17j017LcqsK0dt/YnXVRht634VwoM8a2adWl21GtaQpJjv9QDumjxtrX09vlOxiKRLOZkTCQTkVMf8bAQ+rcvo3iuGOXp+SA2OYG4rvKxIE+/1Zc/3jtrXKqiJsLiYxbyrsH8gP4Qzg/nDBQAzmYvnxW2RS3OBCBQ5agL9cv6EZsydUNST1n+tBgulo7+JakYRUPjrNKAjlKZVSSnIr1vmfe+W4nX/lRAfPxTh7bMrj4bsvL877iRk89wNnbLptv/R4PjpKPpO2yUMTdvbl405vG/2XjrkfJlVPF0tuy9b3AAayREFV8+SLl5xx8KvCzyk9YxI6J9VyPcm7QsmEPTHtv6OU/h/0jhYYXiKYAYnfXY0BNAckEc1XFOkn9P4hIXfU014C2Jb9l4rrbZW84zuFsQ26vJ9T0xV0/pNz435k1tjchOP4XMFefuaEFfQ8e0INeyxobsKAef0MAHHDSsrVz6ox7K3hAIaZYwWbOliw5546ZoWDk8L4WfFQiDiHGf3K6UrVV7J7AsTpM1DU/lW9smlJBcAthnKqLSxcziqpH1UN+0/0/MU4fOiD2NVNtzCATbsTDERPKAF/Wyn6BT2TMCTOteikHb2/EjMxNmGp/7NiQ2ADIk2C5zEWChCMAGvrFcfqetl++u5Dq+i5u/apfvn3vQB3Ovsz6k+2W9OkrCxab914bOXVkrDszyW5RV8RImWjLS4U6kc9BiXHV9FJFgX0D/RT0cOH5T6rtGkC7f5wGX+sZhAOl4NTcwbA7gQTQELg5KF2RfhfC1ne/ltyp7qW21b+j8vRsfHb+dcTyDLN2HH1LVw5sg26vu9VcBHm+VLFxvpoSAFMMGjCWPzcFkovSZpoLtcfq+lCBRzHzekDJxoV5Vdh++UHotQAgR8Gztkxx+T8tDzwQxjKI3xzw0CONjkkL+6mpnvoka8AwwWTTBRDYArW/0vINkqOvbqoiOLTyF1onqLdAdrLR6MjUTOTBJEYmRqz0ekx/w3YSYtqDoME9k0OGp2Rktvc+a9Sm/jURiZHt9Eem53wu2m8CQrJ1y+GiANzg1D0Serr+vMdPXMUCX0NhROmkzboIJQf6vk5IXsxuRx8gFCA3deYpFDob/6+ItMgwM/u0uNeIXziGU82UXqEHY/emrd3vnnLHr057/j47YU4sEAM486ZFbXnCKgX4Br0LN3MrayV7fp37tiDNx7bwzce2fVv37aV++uu2XRGKwzGGNzrz/XK6j52Qsw5F8qf6YGj4f8jpXxOgWn6EVqoKRIKO5X9Dh7sIvAfArsXjCLyMXhNvx/TL3puhsWcvzVE+sPge9PTzmhgfbEkJhXd+AL7Lz+AYaFoi3dW7M5PH20JR/BOoeAqgn6AX6iRzFW4g2ZZtO++Nu/6/aLiWl8qe4fPhQ7FlYrbFmQ0sLg+Mb6zJgdAcmqKuGnK9f6MThmR/o/qnf6/cvuv9M6BPveU3B8pwZpc+3znvxX+Y+H/qjAcNQadPrA7wVAlMRK/LloMgykhGB/8hiLhxD8EMyCSQUBzhmLsm3Nz3uEC60slS+fixluALDJ5DsXmJTLG+LPZWS/VRNsr6uDOLe9fPXTQytms3+C39kg1Q30JF9Q5xILmh6YL/N7sjCvP0q2I/g6Qo18SR/PFIAjBcD4MwmDHg3jk8xiGzGg0kv4MoXHvZ9cdw65rTJiXOMA/SirYHQHByCXCijO9EyJagWK3cEYxyEg0UbCHtyA4mEZ4asRWqJ2AH19yZsCPpibdiGMMPT3uCfoIe6zZdIG/Wxi3+6IdhNIJxUPIj/Lme/s/KQfmJv/Jdmz/h/Jjv/+L+ux/rw+7/f+G/DRIGAS7XyuD0RJjlNwEKA4lI36JgbBxG9vJHcszcdv67PVn7NA6R2hE34WvWc/CMvOqJpxcj8hzmIMQ5vtq8tj+Td8RhNKVmh3AdyDzHWC61rJPry5508ZyDKM7DDFujI3ZzdEJXyvLqEaFwgCwtX+5uWJvPfWW1adU/CnOYa3sSSGZAeVpf8YYg7gQuBuAsEk3FjGp1spMupm2p772lB05hHAi2AraloBSLhTgaK3eWbhMCgQYlJwkBNr8InzmNYiaMzLX0zmrKr5oSLxT4CRjI12y1869ZtVZZSAUtp+xYHZPOkmgF4TcBAS6v0HgctvMbdqbn3/T1jTjZ/0JCJ9RTmna0PGDS9mRWCcfuZPgEHa3EMLzLavS0GP/ykpmRLWFgxegvZ2+g9LWyrbs+qXrVptTm41QgpSBQPhJsA+8FzLfF3AIzo9++Ud244p6SzGA/L5fGKCXn6P+MIhbrq3Yd09/z1bGVyL74/cRPjDBAByqduf4bbv2FFPmaCXgg0aaOgSz3Fq2N156w2ozzA88ee8rfKCC8WH4W2pX3z7qeaeZ+aDRmzMlZio3aZMPJ5WuD0Aqgr0JplPXExhgkF8vYIJ2J2WvPPyQTSSsz3uRCfheQC+6SXSQLPLtnD298ZQdL5/wSWdP6EUA7AW7CZOA3QlmELFhfkkIYVVTEMqnHn3SJlNbx5WE4DQp23XymovoN3y+H0h+G9FPbYsj6Pw74RBOI2fnbpyx48UTrorYNSQjA5LPAXq5JWC4YJIEWC8bUZpH+lRvlv/l57fFdicOYFQjmKnPSCifkHyizCaDci7ZEQ2RUZ6x0xj8+Mqy37XPrBz/brLDYIt2hAzBP7K66vMl6D9VKtnhet3nOkkBIZycHM9dO2MXbpy3XFkBukFhPM+TETqPAnQICQgHX/DXzzAYPI8JRAEIysu3H0D5pLxZcg9hEAq7cXlnjH9YjxsJAgljjI+8/imbiO21QghKLcC5/exITm4BRBRM+ThjbDEfWfvv1g4vUOGmjVdW1+xQo+HzmLCKEIBJJrcGciVjRU1X0mQWIrV0ZO2/cnY5WrjltFya44xS91OlLtwr/REFZ3MseY0LIkR85ZpDpsRDTv7zFebuSqj+bW/zGAhgXPH/UQT/SBH8Yz2zOYe8kXIlyA0ScAf/38LflRtXpgPxT4B019EflGJ0+BhinK6UnUmVxmYHy/LjN62SjuLry4uLO89/6QHBD6FwuMMZCZwZf7vW3EYfbDRabpDxxcUFP0ED7WeSvu+FAUNmFH+qqmcOV/jXCveGCs+rCv3P5c4d/3wYssknEkj6N8Tu39EzZyLEBbEfDBcMCp07Qg7b1MTX1ajosG8o5m8qTqoxCXlHfmjsviSkJn1D4dnnPwBCphHKF1cWXd+P0UVhbtxmjk35Gf+dXyGHJLCEMqVSj8ULwukHgXYr3bYPSSinJBQWPU04faQgetN+qENEf9oPZWhmM84vjjXhaBQEGuhsAxgN75fly6Ilm13Rs7DdT7Wk/Zrc2dYHwD+Iih+bj+RJmoecIAsMFgz52EzZ1IMpm5iYsNSvyAFDjI8KIUx1VfXzg0px+z8Jf0nINj8SmGiO+gG15eXimh96ANNmjk7b3Klpu/jXfsE+/vf+sn3uS0/bJ/7+X9bzX7IDp2f85Aw0kgUJZxjQZ9B3cLhDS5lhR9rJq4ft1Iun7MN/+5ft0l//Bbv0H/wF+/D/8R/ayRfOeoFgyx8XQHA6But0PQFnWguabAwx2D33vBArGZgOTyiUgUeszMeGGbi58cqAQgUMrTEoj4ofKVr5H5b9etpUXTXkYVStvdSk4hr0FxTjjJz+jfy4zoRDCWiHgR75C078HmrUfbcY4PcqC9e+9wO7/vVv2hvXH9n1r33Trv/RN2314XrnQxKOmVFYnOwGDybGzog2YUkubrT1tbWS3f7Gd2z1e9+31T/7M7v9W79hVdWSlAKm81lrKC30QdgM9AX8OFH3C3p4WXTVbKeKUSR+Czmrx9QWDv5BMGgvzwqBQXRjGCoYgJLvN8JiCYNO4bfcObp2Q2nwksDyP7tzv6lwlJIX5NVv9OYQDYEZIXV3xMS3qRrBIQzN5qY19dvS+9ThiSg+1SyatIvlijeD/fJJ5s5UoiYsGYbzLTl0YbPeULOrONS3rKHzVzO6qf6GisLKM30OHX1fnT+du2qH84Z+g/6DSKlF1KYFvf5W2kbTo9G+1HCABWUw0OyT+OGCCR9CjL4mXHuFEQYlACVQAKYkf0effFTM+if68CeKnwFAz4xFhJNpTAL6kpHJMRudCji+NdGDcwJGbgyf+0PKuKMZJidDUWtc74/Of3rc8gUlnCrlaYpo88boLXrrAwSixqKN/Kf6sqrwbBRWgXVl2Y9VIOpK46WatRfkjmoefmFXxggtjNp6RDJYMOEDIueclP9eSM3goAHaU5bx48SlxKDUqF40jPaThvDjtIjkuL4LsBF+lI8DxMyGPwiEJnT+3UV79E6Ej99diHTyMTC6whjD+dkHyDc2z8l8S95+swaXODjtt+dt6daSTcypVKsWhsDUsgf5MR8h9oxCjj7wKQn/pV6IjMKKeRc2YxirvCmkJn1d+BtCzitDJa/31E9iqn36muE1hu+R9P8gJDIOtWE7NOfFIHVRSP1zBfp/6hn1qfqZyTemoj6IuUyfhhqyYEt/3ihMRDp5gFpQrNitHz+wpXurrvsHl+6u2r035jvCoXnBVqCfFhM3Dk9Ad59sKLlR4/aP7tvi7ZWY9pot3hHt1x77xQu+Zb29aQsqMOWcRmnQ75UFIiD//138e1xOr0tI6POZWlAzuPCHE5fob8PlP5RD+MLFRwgF2j0yMFgwfMBMn3u1qAHw7t8I/2uhak/qK0oITRXmOghNc5vUf6G+448UmEj/QuzeWzYOLBqyQTWcjsEBDHdf5za6aBSVRE61IEkIkcMXuPe/H4S8cunCuxI8BhbW2rQHqoX1SmMHbV+5lNChTfP3k+kpFYJU7wItR1oItyOjBtCKvCZkikDt+BNl+aaaNSxjviz8FTGAUSs1SX2P3/GP0R/QhzfDawyRPlRCjksIZ5QYakvAA6LL3IXIiQyFpKpr46A6IUybjsotrgjbIE4MzAMp2T+anHHhZDXRowMOfknEoNwPYFC478zO7krnz6HXb08U7G2MK8T4bL25jWYSsT97MDrq9weU0gM2Uyn9nb38NN1YnmJTBnJsCW4gQP7FDq/p8Ax3BgFU45gPvWC4apmPIdKrrwhtBAlkaEjt4NA5ruEA+DZEzpJMPFD46BufsXGsSBI5l2jdwIE1srMaSbm+X0IIQSoawq6pJHOvy8ORaOv38FK1lQRoM6Of1SgMu2TmKoE2/tCH9rt+4UO0JOP0Pf1qBXI1e/3sG7ZWUKeBB8yFT4k8bAMEEvIOEI6+OiSoV4FVQdu7zn83QOR8qwg6EBKX0Pkfqh+2p9+4ouZFL3HGOunV8JSSyzlmM02Gf5H7nfy4G0pwZSLt/m6EEiDQZqUAXX+h3rIT9YrzCf5gFMjtTTR7GPiRJE8WHwlaafU5swt27fR1hVGa8GQ43I9P+EM4zlug00l0eO+GhGD2kr/hEFfbvhCXsKWJRfvOM9+1crsaBmOeBxCzodZm2rhw4Y3CpOObwrURNS2qJTRfe010oE0t4BAGFkPfFs3XY/rERZw0e9AmbMS8lNUV4TuXr9m1yxJKhjYJ9yFAGCcSQ0gA7rv5XvDeCiYkYAhwAENtvGY/OvwjDfi2C4cEgRETt3CHocQeISQtYKBL/xaarQ7tOD3NXMPun7lvS4VFa7AE1Kv5+RnBeyuYvYAYXT9dtx9dknBUc5LQzcSA7xXshnZD7eWbZ96yuzN3rbH5/goF+OAEE0PraMvK03RAf76gLUmUUiWNb1SdPgD4QAXDefkX3j5vsxssT++E0CTvslnePYggzWdf2qpC2WbOLt+6bCP3NZEbJptAqCcxwTD/HrB7wSSJJzFALz8wCeFdg4BsKWsXbp63Y4ucmb+VjOSnrINhTgTSknST2ysEuqwasDCBEhUMtJP0OacZFfhTi0/ZVG0qOpusu83r/ghIug3zHwC7E8wgQruMyAEOiMnZYtauvHbFji0f03xlK7eQQQicDMvZYtx1zGUL2AAwjN52KcJuIf4gfIcgoK2IXVcD8sxQeht9JYtth7ONGXv69lN2oHwwukumWzgBcA8IOJEEwOnkt93+XTBcMIEAIZlkYmnEZLL7SyKVOwYHAXeAMk6nf/mnV+xg9sAOocAYtpWz6fXL8wu+7/7jq6v28ZUVf8edG8NRF+yqL47THmoHq8wnNMn83NKyfXlhwT4hutD+eT2/srbmV8Wj8eQz/1TfkcLxyrhduHHOCkUUMHgkAFmxLIXRPBPobt6QZ/imfPsOA1QnuAHdtBIwWDDJD3lmL8gfCVlpFnM6JYBf+fkJ5Zz9Dy4KA/dCuBgmR+dcGRYA0ggFxn9UgngW7aFm/Uw0o84gWgXgtIxPri7bRH3TS3gyeb0A/0C7oNr3sbVl+7Dooy3lyF/oYnkD7TPlsquUL1TK4sp24fCUq+Ysu5DTqxxC0vlFIF/T4z+Rz2/KgRN1JQRnvtC1lT/U73+nX+wDfiKEL4M5P8xbQOQazRIphhipbwrZOfUvhRRF/FUiUr+vBwwx/tsYWXVFkD3Ar2YXJBmHUJ4plsQTuWQyKrkZ2xS2wZQmlyM518dMiImfW1n08HzXFyCsJKHhZCnmMytLNi2BUGqJvyWa0IX+pn43sxnLy48lIY6d9/0vMRnAyaFj8QwLiFuDAj9MgY1c2MdzAjlL+r8nN4TDLODfCSnMvLPx66uiwMULDChiUr1gsGD4kOaJiNBcnhN+Gg/BWxGmxuT3WIl6R4mi9LD3HdMcBlqBcSF3PQA7rotixDMb8ZBZTDv21GF79m/9vD37H/5ChP/RL9hTf+2LdvRpVgGj1WVOsBi2nRxE2XVVNXCE1WUxvnBg3M59+Iw9+ze/4HShf1XPZz581ibmxlVLVUhE+4j6nuTRJQ6BkfyCahXa95WGA8K/qZD/ntz4BgGx6szOsRtymlUB+HXVzo+lLD+Wt9SqPn4iwQAi4Bs62fyJZvLTev6S3KmOaOIEKIv8/ZTC/F2F+Q+Ef03h0PnrpxcEZ5rdyyVWP+Wm5m18ZsxyI8rI47u2+ehOB9uP7lqW7XkKjzUNK83n9B21pmcUCkdzxwEM1BTCoLmcPjIh+hLpwv0ObZt/YLm8xmEqFM1WtKHpufV1LwCJbnALIAZjKXwI4y8L0eaqUGZGM5bNZiO1AEoyFezNFzYtdSDl2s3GX2vY5ofELLoCeNYHhguGjz+vtMBolvVJKLWFxFEzABRFem8fUqn4hqrq9+LcQL1XxhxSXlsOacQ1AeOQkCAj5qDzryysbMdFbsIg0ihqLGUo1du1+VuAKxQ5HCgYD8JkRla1japorm6jz0EPvjTv/1M2ttmyAw0xUXnoKxw6dc7OEV+4tiR1O2Wb6v82D0igEwpArUGAqlnp/16E/ok+uyV3BlDK+yAYLhgSQCgSQbP2NbFCzVZmSpSvyo2RCE2aGOs3QrBhFHszLgGije2VKQcRlh8j121BiA8h8duNXXBQgsEisx8gtBkJ3e+lid34pcPv0BRinLGxJMF4cxeFQmtZaDb8lWA9AQ8F8H4H86RvyWmy7YdeMyrN3BaPKE8/altrRQmlzw1qZRZ7B3B/uGAAag3DvR+L4Lf1PK6C8Pdb1h5Xk8W/w0rhBSXgl/T7v9Pvc3JbUua4dQkDDf30AnT+C+rUvUYnSjW3X7CVHI1lEqPbKiJyKMzQ59fjza69AG3Ow5G815gQCpln5JakjzxGC9GdaWkNAghETKxCk7a+MYh7fsEPW8p/X69qIlNfkJhORF9sHtHX5J97Zv6h8kY/REGSAN2AI8pOTxgsmPAhoy5GEl/RM1o6LGFm5YnUiYimjp24z+r3oH7Rb4ty+10998kVziAHUD8aGfX2HKA5AR++s2j3Xn/cwftCTIySmeGAhOirnRCiXYqNPcI7gli6vbJFn0MY9Lxwe9VNpbjXn9pSUj+BnTSHkvfU+SMU+pGbev6GnsfVjP2Svn9e6efKeP6paWfewtH63h/RFUTJifg2APoLJiSG5osb6RAKoy4sLWkjmcugdiaCf6Qw/z+FwSyUmnVHpYai/6Leh4BC2U8mpyJrFJXs0mrFFq4vWWW9plKtZiHGlpBDEqhZCLEoxnHkO0v20OgFHAO/KMGgw88geAl8fb7kly7UK82IdlMdcq3pdgCVYs0HCE3hO2gyNZTuKxRqKsZ88EV9rB/bomY89TtyR+/PwAhhkDiNzCjYft4M4xzcsZMYUC0GeAkgqvgyv6PqjRGkMuJG0+o/MCJPfV/IcJkOUILyeQ7j+t/TOyMyhtYkpDtzid6U5mw9n/G7+r3pV4ldny9qBJZ2+4gkYkwRhPKnc8rdAPUywWHqpsJ8e3bGdfkZfV9aLksYnCOwRdfDgnJnPogCjZPLqS096SuM1+ybioD8YRZLR08/810hTRuTbKwxnxYiJM1n2t/XNzNC1So3zOhX3QWDBQNDNaJopdWfaKzeMb4I/1TafCTzGYVjjkN4zWz91AnMnMJhN92QkmMsHP6ilbwzNmrfmJ1zEgiAISuz84CUeGoUQvmmhIL+f3DiY2brH6rjn0xN2QPVMGoJ/RMYaPPMfIeRHudiclV9W+nTHDMByqskzb8okQLyzEFHWAOBPNOifEGIgYaasfYnFBh3zJiwceb5ipDEbaO/HZTXIftjIv71hkCYMPQ3oNxoDhid+Gw3hEnsj7l666odXDugZig6RYkgIAuYU0rLgXrDTlYxZtsCum9KPYOFalvzBLkNEwwQaIM5FYhCo6UJ7YayiEsE0OZmprtjY7ahDp9yw2gx9vSavJZfszdPv2XVKQ01iXhSSCLgVS8eUSChQVj8Q58SEr0V/RaIX3szxmBhrlfkMD4kICQQ5D0kJCQgIZh8I2/HKyfsmRuHrbxJ7xgFA2lKWA7hypJuoETDNGbne4VAm/5jVHOUbqCPo5bQ/Dnv4jio2OV82d48/pYVZ+O9FeQRwXTzaRDwDTAo7QnB7KbQRXMVOvpuDPkjUp4RFMxP1pQeUM/V7d7sXfvxpVuandOsRSRIDCUVg4lmW7PwLnQd/aCMDQCnr29zasp60XbjPvknGbIpKa2PV+ytC29bcSYWyj7j9+/28O3uBEOu+mGAQX49oNlq2oOJBbt7/p41s+rD5BbSzackrBtxD+H2g0A/2mAyLP3q/Oy8vXPyDVsfZelcju8jkJ4PDNpql+4dvmuPT0SLbkGj+EGir1hLMpVMze6eu2cbBeYI7z98oIJJqQnJ3cnZgcfRohtzkg8aMWeicoxoJjhdmrFsitXG9x8+MMGgW5m7PWPPPrhqo9WxbU1Mv1Yj+O8bVRPo3HvRD50+SIBcM2un7py0Y+tHLZd+/4Xj6dgV0PDuB5MQu3GYwWxlzl5eOmuTLQ1v4ErszSCvxqwaLiaQC6lVmH1ktWeAsJARFt/7PQ8J2owCGapDn6AOehgvj9jlO0ft6PoRyyKc7rgJ3PkghuCWxCT0cusBuxMMhEhUKFJgknjSPYndANcFR4tH7fL1i3qa9Ekb0Emv3qcaTXt+fd2eLxYdnyuuu8o3n2qJrIQUwu4CnG4sEPQzebH/XKUkmtCO4ni2uGHTmt+kJCB2Kjt9hefbVHXcTt49aUfWjmoy2kM4AG4ByXcyTNIviUOgF/u2g6dOSKdI+4vegXUM3kMEooJbN0ZciYI4xLGdvnnKRiuj1oy/hxEwjWsQYdYnl5dcB3+8UnE8Uana0+tF+9TSsn1sdUXt/qZ31EMhjpuwKX1zrFZ1AwxonXDaVad/UkL/6MqyFwb2hFKDgnDYtEFaT9w9boX7kyo3cgz5Dr/MhVGKsSzDWAH3pIBYtsEf3G502hcGCyYwFSawYMeSP8YG3xCSCJpecsD7HycwXLqAZjMkDuAZpyqS9MUNRyxTjtZqbixxVgLhfMoWE8yWiIPNTUsJJ+oNt2TBYGNC70TdF/R5oM8OsWc3ivaiGD+tyWVacxnoBfrpZssmGg07V616wSAt3sRBJ05/vpqzTI09M4kM8Sg+sD6Y+hfC/0kOXEjBijOAv57d/18JOdyV5/sJGn1gsGAAai+E2EnGAh07p74lWf2mpMVsHu5wAjd+3NLN1mmEB+KP8LrSsZnDMQJKM8eIcDc/hhaWzdjE4UmbOzFjB49PR3hi2qZOH7RxubNbmTtgnhajQ8nuBS4UxUsYLiU9zQ7ndtvGZsdt8uiUzZya69CfOXXACnIbnR61CQkKKx20o1y64MKJaW3LB4WVFuTbcnxT/jWFZCX+od7Z6sfqO/lXQeXG9vYZIXqra3KDT8xXk/S6YLBg+FAh0l/TH7RvLL6xOHlUzL2rUnxDAQjDRllWUVmoe0kJYfcufQfqgW09agw0czGQ4fOlkhVUS1g3gzmzxyfthZdP2YsxvvDKaTvxmRfkPqXwKdfhnKpWbK7JDRc7yTuILsYUBxp1u1zaUDZS6vTTfiL5oYuH7NSnnrfnPnTGnhfyfPDCId/j31RNZVMT37Cw2RNIPpxj9YOVDvT9f1GI7v+UvNdVK+YViFaFgxhYSf603D8vN8okSjKE1oc8MLzGqEhuPi8hvKLIPgwXRe8VMV4lkfNR3LDvs3L7nNw+JhyXO5H/nNxm9Nwn8uBMwTuuGhAOYMioxrA6vbBWsvmAqxvWePhAfkquokOA2Jwd0nd67QnQV2r8QNIx1QIfzQlRJ1irYbVHD21xZcMWhDy3qtF2Nz+0R/QnNQBx5V2vCCBOgcvr8TOK5UtyYKUZRRi6FtYW4/2W3HxBv5RaUJofZt04kNrjN2L0S7xguGCUgPazihzGnxRBhPGmIuJwBW7IQEDUDPQvVE81c6mz8mMz6BCgtM+IcTA5GGOQaYwxiuW6laoNx7KwqebFl3ljoElDoHn6i9itG8gcfRILl+FLSLQ0AmtubFi5UhftujXW9bxSdt0/agECk6ajGiz4Un+vCGhDKUvMjbmfn8jQx9AXc/HCCaVrNmWZj2QsXZfnb6mr/MNmVHBpeVA5h0T1gOGCCR/DfJ5/V8hu3Rf0eloOlByQRKp/8WPVOW8Gyv06gBiyYkI1pQ8TDAcY0WGpmc3nOpgZRb8dBxDwRTWV1mhui+m9AAFm1Dwlect+/syI6ILQH83ZaGFEIzfRile1Cc933k+5Sw8IHuSVK1s4CAkd1KeEMB7l4m3RUP7alyKk8KbeENHQx/QhPlwwATQM9D3sjDg40ObzQqoszIcKEdHxs2sXZIV5AJAm1TvfV4kVS9LEKDeWd3Xv0p3VDi4LmzVKQPQtaoHFvGYlvPQBxLGYI5EJUPimauDKvfUO7ZX7a15bYCD+iJr9mAv5EZU5UtkH8OCTdxTmK3qh6fqCnE4pZjIiXrWvSSDo/rncB4Ui2YSHmHwNKLjDBUMIEqBRV/snospNS6iMfcIeJ5mzAEgcw2MsQiL+7RrYKUx6U5QsMai6XrVH7y7Z8v3o8IWAC7dWvEQTK7fO3x9RNYYxTmU74MaJ4+xwxrAihGlUm7aAQO5u0V26t2YLt1esvF6zjAoJwCHc2AqE6+N3gEcgpOn6AyGdPActqMb4uf/wINZX+cFx1KAwQsWdggyEhHVBf8GQGJAhIBfEYZ9L/0inxakYDPkwAYUwVN4QAljR9MpIH8g12/a2BHN9PGp0q2tVm7+2aI2K2mPRCcnguV6qe83i/bq+2eDkij6ljmRR1lFFo7YmGHMXal51Q5PImI6jhF0vi1v1pnjd9uvjuT+AItDRZHaD8sxBctg9eDPGqBXDjP9B+C+FDIuxhaALuCvk4r0/UVhGcrhj7Usi+9DvL5gAmrVmvqOiQQnA9IZJJkbSTCSZPKkvcIt2IsQoQYL0JmEAhJrGX5jXVDKwSkE4dTGvKcZl1Xdk6Wc6qLD6AE3jDd+PP25pcbsv42JIiek3xifsBteOqHmqlxte0LfRFl0EAm3sA94eL9g6tSxB21NMdwgno+S7wQWHybntMkYWTBPK8a/mNW4noVqUmtIHFGzOljmtb7isITLD7gvDBVNVbTyj4fKLYuFLioDzULg6EJxSJIxaMMpgIPCy3kf1269/kRdYzyHFKHf8hblcF/rORHTP/qOxEb/Bok5nrH+UiaqamBsS3GvyJxxle6hQhMxfoP2uhPODqWm7WRj3O/2xsaQW0Uehsi5ruM7W8h9PTtkKAwJ5egrjOLihvDGrmoYDbkqUj7A+p2fmMEnEGIO5jZoutzP7osJ9XM+MbD+rZ07HiLK/9dsFataHGGOQem8HcOgC/Olb+WW9iGdEHcTNN/gBTKhieRwoHrTz9y/ZZGVU3hEHCAaTVKj9kh/uLUMNfKhRFdNytprLqs3PGPdYbjOW2AUQ1Ocxesjo4wnRH9HcZq5Z9xMx1lVLiBtDDFTMpMfpx3FURqt28/hNW5pdtmZbpQ5adPT8ktfArwChj+X7wAt4CPAe090BIr07nT8REym7oHohTVuIhHkM7SkU+Q7shthteWrRbpy4ZpWRimbjSrFoeFTQ0itD6BUxazE34rcqcZQI76323oUCBNokjWZzVYJeEG0GHXfGxmxZtNfkhjEG2e0Wyp2Td21helHfinPJuAP3EEQSk4BA+CbwJPn9ABgsmAA0TSw9dGMoBURIgnAbBHHiSNvy5IK9fuENz3ALK4vYG6ZgcJETbZb4gzB4x2+vQkkC9J22kIxvijZVCdqBvoN+eSyPVuzG8Vs2Pz2vYAoQ/HcLcX73A7sTTIigHwLd70OA/n99Yt1unrllq+Osh+8ESD2pMPrBMNrNTNNuHr1li9MLUU15n2F3gvlZAAzR8JtRmS/r/DkDBjWVjEY+aFM/APjgBKPGfHxh3M6/e8GmS72vUUVc3mn/DCDQVgPVs4XKtrJ2ZuG8zW3MRdOB9xl2LxhS3wsD9PIDe4HyOZIZsfOPz9vB4pwmmVvLJoFZHYap5IZ3Rk5PwiPobRMGtFVb3T1GB4Vhq/vB4oyduXvaCgsTYpRY1S9uCDjBHhD8+vn3gd0JJhBlyMKyQlhaAEKkvCf9ByRkvDpup+6etIPNA8YaZqAVMb3tw1nHZsvOVspWaDX9nW1ELTGze+AzEOL0hWRCY3yzZZOiyXH1R+s1f0atnYoLgSddaWGJaHKjYBcWLtjMxvRO4QSiuAX34BawG/q5d8FwwUCESMVAPwy7IqwJmYaHr+OEuTv+nHkPw/vAuVvn7eijoz5nCRCEcq5atuc31hxf2Fi3pzZKel7396eLRTsmRqZjBg6FmAHQbiiuyWbDt4tHRhjrvvOZm9F5fk5xnFXcGpRvF45wtjZrZx6csfGN8S1+APySh+7fJAT38E3wHyKcbjLbIXwMk9G6fVXIgt3vC9mMgzVFTMG1mbijVmXNiAMYQmK6YLpyQMPT7c0XkZ1TCb5c3LBDrYYdqNbEkKplG02b1fOc8LzeYSS1iCZomHBIPrTRx8yIzosSwNlS2Q5rYjlbq1lObuP1hs3o+XCj5tvIL5dKmqJtFw5PE6WCjSyP6DWRKT16IeS4ydt6Rq2MsUXgqn79olLUzJxZzS/+gcQA4QwWDCAi6TVJhlO4ub4Xiw/0MTAf4XA8yV0F4p3lbFZN35T7v5Ubo8yQiARgBUT7TrqitEVCuaLSjCDGDxYsf3DaJo7M2tjROf8dPzJnk3IvqBmCedQcLGv6AoRJgsJwQzk1gqPq82NZpz8e0x6FvrBw/ICNawSGdc4l0afmbKWPXz3RYkCUPMF0dE8sTv6+XL+qZ24A+ZF+aWvJIysdnIrB4RQq0JyXkPqhnpPC6wO7Ekz+vqb4EOMQUjbmsMeSGsSqqvx9gU6lwdeCfqFtqWfkSAl6pIT0Pak8ArSYNF8IhUsOOAHjwOlZO/mpZ+3KF162p4T8Xvn8izZ5Ytp1N6h8n1nfcOuXfrUmMJUwL6yv+dZwbruYPjVtB88dsMuffcFpO33RPvLKFcvPsDDatlOVitsUMIwPgnEI+fAs6c87en5N8bBoeUwh0fFzZz+tBYK7pTA/kn9F+TqSsvSGHDm9/UFMiJ9tEWzBcMHow+aspvTo9T+vBHBkL4twfAlROCMhuPEFC3fC9AvyxJ+r0rdarB3g6dIf2n2E0hLTx6ZGvQ9Jl9astrrUwTq4oSKoaFgFnlZ/wV0yO06vCCC6+KHzP6ia4klVkzY6MeL06+vL2+i311csgzY0k3G1MpY1eQmV9PUCX0FnNR27RfRTHxeywBtszIiQ5X5qzYf0yvUtbPHjHXUJfBvA/cGCiSXaPKg26bKeEQiRonuhGQk6BX5JCHsP74kh19QMkPCl2L8HEJz2f7TJKEyjLQkF4PSLVr1ptcUlKz543MH1R/McMdOhh8r4rATD+nMvcFeFPakwyRDoXpq1hhUfLSToz1v5sYSjdMAR9DDjeqZfIo07Yogd2hfF7J9T6CuqP+8qIDWFI1uOKGo1e+l7IqaCmTop/ymllBNGSD+6m8j2o5OfbhgsmAB8DFNUGtyOir4Ga5nzSpgy6hcNsBGUk4X+rdw5V4bED6HelD8nUMT5jIC0YymDnl/NWsBsPmu5sa3qxzc0ab7dO3LaAT7c1VAYs6VkHOzl30YfsyVu1VAgDlIlLALHpIpR2Y5aQwCQhVwGaipc3qzBbGoNC7rqZ1LlxIdhbZEw7Dqhrx4Ag1lH5AChWD7hKBKYjwYOgwsSQITUJvQSVGvMdz6isOQIYQ4AjB1K2bRfcAATAZiQE7N8q3cSyVQMZJdNrau+XN+vzpD8lO/zh3ZgkZ/goSYNekna2ZFslGYnJiHpEZUAyQrf7gDCkn/xx/Uu1KB7iouDKkgvA4AAnQQIKV9DCu0QbwGEFEnqu3pAe6lq6kYFCIABAUCTxQjsJeEvK+xMnIrjSrCY3wsIweyam8cf5kfUrkcllRMrKkV0/os7sF6NFhNhNAlnM2s01N4JOEOPOwDgUchovdqw1Qfr9riLNm7ctuRn/StcUULn5A2W8eg+twHEQeyUGQITAXnH3kHv6ddVQ6mBrJDKr/MMYYSCuROadKCbdgzDBaNSn7qmUvkdEV8VFUoBOv8/lrvaVR910clx6AB2VVh/MEojYhJKZ9cncgC7MDSHqHR9S7eEsnBz2cprlQhXt3D57lp0Pr/CURMeCwc1ZWgh0eOw2xlIKa6V++u2+mjDSqvlLdqKZ2OlbDUNLkhDVTUF9XWl3wEMitBrHvZ1f6gXVMY0TeRd4FpcjAExiVX+fY6HXzDAwBgQzg/gy2DBkGOFSL8aB8MQg8kUQ8KfChmNUdcxV6IkyD317/QRhw+8KD9GcD3WT5Sd+FeoWoMql9MxUPm26i2NmDT5U8nNZdJulYkFJs8wjrZlJZe3VycnRVr+fTLnSZcfGk8uXeCiBtLKyK7daDm9dII2i8gN9S8bEgb2B/dHx/z7wCBPa/To4KNQKvCK3P9MOfpt4XeEEyrEatI4mAIL1nZBtVs1yOcyDJrgIYOosGyVJJqAwYIBqIoYqnEhHLbJ1AKuwOLOLcxCSRx9DhfaXBDSxGme4+ea9Yl0U6OupGdWtYAm59XClD0aHdHcBuWYMidGcvACJrEIZCOXtYfy//HUpC1nVVvI2BAgTDGTtTclHA5g2FANovmj9YE2VjeUnbr6HaxjuAfztprIlgpMkr5fn5WmuZUj7vw8qz/M6TDyo0ljkfwVuT9FKPlRYHmf0zPzPmwkPiyfUxAYDMr7Li9d6KWdDOEQLzWGCRZxUlV5T36Dzj9+v/z9K3aodcDyYhLf8on3FXoYbzf9ZNdgl8z5lWtq6+nib41O+GBhI831VlDaPbB6NLHZ9IXRg826Dzw4ZI445tUkYuaEASHWMWi7k9vWEcpCbslunLph1Rl1rOR7UohqnTzRx9JUUSgREvMbpA1xRmHwBcQ/mNP2Sr/K6+4PYIAAhIikG/Cj6AUI1RMMCQuQEMz46rgdfOOgnZo6ZfkawolSyV9fflMzwWovwGEJHLaDXzmVdQHuVSgBoE0LxAkZCBohARh5YHnpBzDovVNT9NtUOlzTeuKWrRc0AYEXIIIJzyCk4BvfRmQjwA2iwR9+9Ut/QjCQHAwQhRiEuzEIhTAgLVRwD249oHygbA8vP7QHJx5YdZR+I3InOLp3LFWoFeBidtSK8TP52q9QAGoBGcacSd28LWVHbCk3okItyhIK/kEoauGsoQnmfGbBbh2/beuzEgoJ6AbySr75LuQfCHnnPekfeDYEhgsGCEzuhwH6uXeDEts43LAHcw/s9pnbfsEB6fa2X0iiYFCE6mfi5+D/JEg81BoqqdNWkxaGxMkwrMIt5Bfs3ql7tja9hsNOUNi+CHS/A8nnAbA7wfwsQBmtpWu2eGjJKvnoQB80lC2lqC/i/6TYi27AZJhsy+bPzlvpsNpguT0xQGMPdJSEDwiUyHQtbQeXD9pIg94yKsWOElpfDGH2i71oBkyG07+JXMFGm9Ec6P2GvQtGie7gIBgURkLJpXI2+3DOTt856YKhMHmTJQb1K1idMPtB0QX7ZThJGyFlVG1O3D9ux+eP21gDS8YYuhOn8NuwFwzz7wF7E0w34X6R9UtA7I5QDq8fsXNLqGuVaRp4Ae07zUhanBnTsJmhM8gzR5o2NAtkZCW+7RmcthAaEf1Wgn6k78efcDCfiS+q5GOLRyLhrEVbPrbBsLzz3OubXt91we4EE4gRmvkJw+LkAl2IKBkOfzKZADLLAuKh4mE7de+kTW1OdmzKQsebF5PQszy3UdyGV8obNldv2LjmIpwcCxN3A1BHkCjk8nqaFQ3UBc+WtmjzfKZadtrM6J22Y9vPVjsq4Zy8d8LyG6yzxH4ByCujtcAT3gMfgOCfRCD49wE+GwzJCADmI4tKW12pCxkAQjgiZljI0jYcSSTA58MaCR19cMLGS2POBLwjoUR7HlEbX9rYsCPlqh2OkeczxZJrImHkZKvhevyhAHEhW9ZRL1wql+x50bi4LvqlyhZ9PV+S2zOKlz3+WNJ4rYzzl2/m7WDloI2vjOs1ES95ZW7GEhR3hS7Ll8yEIPwm/P2XtcPgn+BNNwwXDAAhDXFZzEz9kZCz/r+n93t6ZnNJiIDapGf2GPraEIOtZAw8y3+kmFdNiRokSDfEZC5GgDEcwDAux1Q+45gZVynNZy2v50Mq0ScrVQmo6LXHm50hoEpqU62mW9ucE+3DolFQmlknS42oiIt2WrQnVAuPVWuuTUW1zEkanXKlQsP5N9lGfBsGQF5Qhbyp99hIJf2HcmTDEh/F/qyP+aELIHYBaHVRlIW0B951QZJt/UElI/VYhP9Y1BSRb875M+EfiiqRUHKIiGXwn8j/G3JnpZmE9WjS2qwY8gvqcabRsGfFEM7DZPFydG7Cjlw9aUeeOWlHLx+y01cO2dy5OcsfmHCd/4kqwlmPdP5dtANAm8N82HbBWTE0j0SbPzBuM+cOiP4JOyyap0T7qJ5nzs65oDjH5oJq1pF6zb8PfIvSGr8Rpx792ONv65c9/bRy9+XISe1s+4Ozj+T3Hfndlx+zV2oMRwBzhjWtygDuDxcMiQDQXqpkt68qAjbnBGsZjC7YWk7p+Zp+2SBLc8d3YK8YXEccebN4yIE7CAem5wqjfm//3NNnHQsSxmkxbfrIpE0fmnC9PYq1I/WqHWxwEU/EtF6AH8I+LkEymfQDGA5O2PSxKZu9cspmjk3bybMH7cCV0zbNyRgTOecXauWLpbKSHtXqHUDC8VJBTI8pErbOf1HpYDU9rJvJH9MlTi/3zcQ/L3xObmUV8JsiQGsSeNQDerFtJ6gZI1I/aIBVZhYpIciCXLyrzLdOX9cvlzuz6ix/3wZIldgBW31LRjk4rr6FXV1AVs1KbjRr9aXlCEtVWytWrVlvuZYRQGsJctpsP4A+yPEmAOFJE/RbtYbVl9kF3bBisWLVpRWrlWquAnDtpsJyay0HN/RJvtNqX5Gwf1ESeEXvKA3Rt7BQGUyxjyvY5xSQVXkUjPGeIt8sG2WlL+xOMCSkIEZeUCJYUf1tITxhP+FZeYYO7WXh5/TInsOhwIngZtNqOgBf2gdEzjerLi5afWHRD69elWDYzewLWAJCUmswlggn8vUCNP2cU8PhDtGXEQmMLprLKxJ2Q0KvWE0FoLpWibStYBwP9mgIZodwAjEJgUMpKJiu4aW2sDmYQxn4blIjvPOtaNmf1gV9DFMiCi5z6kCnB+xOMCSMqsuCHL8QxxoEqxASQwSUErZTU5uCpm4gqLSJLk0MepckoB3khHGwxf7Olvyxp41TS2iYzfeDmjJR9n2c2y9dSLnxBfz3CxegrzxRS+WpOCNqNAI9hZIEyhQIT2g90L+oH3F7MtwECNuP1GfHMk28mrX2OREnL3GYXrA7wZBWEIYjAA4T+IQQ+yh2L1OLGJFRVenwoxWWocAeS3QtJfU5KK2cJUp/s9Gy9YWSFRfBsv+uPVr3HcdxEDfGeMStFn0YF5y5RznUgAjaVi3WYvrQFi5xXAlGGQqnD5laoU1dzuV9FSBKWAICcfoJOnreaa5oMdTR+9H6HERAc3VHn/+xCDBIUjfA5Uje3A2B3QlGwKU13E/mbSm1BXMlEnRdSF9O4qNWacvQYADwaUbFEWOMtyYLvis5o6KLQURxoWzrjzdiwZRsXcxbvr8mVMkQk6kB9Enh/H1o7QClh5vG0Uou56MlH76rluq2eGfVb9ZAOOsIXc/YAqC6Zns5E9h7Y2OeJmrODvqxQ+ot8YTpg6YR7oYgxFEXCr+Y0HI8mAZIrt3FtIlBE60MrU9MpxfsTjCEoo3EDpfSwNj9db1TmjBd6q6SCA9BgT0hShHe1JqbY+P2TiG6R78p5qzPb1iLfqABthy5taK2rtGVSjWjNzbMssuYta1eQAyUfASPWhljj7SarrV7a1ZZq3oz1orp81xVvK1a0w0J2TB7U/SpjknedQYy+mGQ4E0T9mQcRqFhcPrbETs3L6v25xU5NtwMqeEPzf6f6p3bMjjbDQHF5HrBcMGQcYXyTo7hIAfJ/Ylo3lCij4syVZjmKwDhKQ2+Y0H/tjUjEaTw51cIY9EcBuGsqtY1JJSMMo41DH0QvxzIAC9QAd8aG7Xr4xNuBdMXIC6kRj0azUs4E36uTEnNIXti/eAFpQ8krrYEgnUMp2hwnkAlFV3qABmA300/uJsE67+kjtGFn6RE/iWEzYoiuyg/phTKI3M/vyaL+2MQBFasdAf8htalDwwXDAADqBm/qEjPK1L02hwexyVymMcmI+GZITN3x9DnIAR9koRSfrviiblXEM5rU5O2MD5q66oNNCU0WZR6jPswxPiJ/K+JyWw571dbAsBMXzFGOGrSOLzh9uSEzatpgzZ0QfT8mEKxvRyBIxS+c6F4HCmrjmpYPa3RIQ6kHTwq7y/I5dPCZ4Q/L/yM/FE7y99tlb+sZxBjFX4xlKR/ZpCU4EE37E7nD+DGaIx1sqZK2Ig8II4gQgSeE4HemVy5fVUAqn087ZhZm7Fz987ZVLngBnYBWDlmDWy2WbdxNTMTrPrKnVrHIAEmLudzbos2sLb0AF851u+IaHK4A8bm0GbIUVYhKGczfjoG1jEdQ4z4tzi+YfcO37P56QVNUkWFJMN8+hQKH/liygB/AGoQ3zII6lX08SM8v4FngHi5N50/QMmPR2V+ch+JIAHdQiEyJdgnUX1gdWbVbp68aUuZFbcVDgyA2Tn1IevpvJfqW7T13t6P22J2xIrpnBuh71UoALUGe4K6atp6Jmd3R6N+hOu05nMjijOnIXS3UFK2MVayW8du2/yMhAKRJPBKgaNwIiSYHfpXgHdGbt0YwiSF0gW7a8ogABIaYZAQMEAyAp4RYrLf6QYlCuHcPnnHliWcRibW+Ys+oyCf24gO9QXEpsX180ICMkTeM4o26NpJIRPUQJu4ovlUFJZoWqlNK04U7e7Re7Y4q4luvOi6DRTWeaLwnQLKO+7gIBjiD5m9QYg0id0wyC+AMlM8sm63T91RqWT1U8xQM9ZSJ+/Y9W3HHSTcftFpRAIIsOXOpDXyqKfqdvPwLVs4oBkjjB8EIa9dad7m3o1DYO+CeS9Bsddn62JMNEzDLrmDYsY2TPo9Mfan3VmFEPNqLJLGtmfvN7y/giHPICVGTeFkpWAnFo7rd9KdfAQVUMyjaQnfRE3ce4Ax3UG0qTQjm3k7NX/KJhcnt23kfb9g94JRgjsIJJ+B7neg670zQVMhnFiYsPN3z9ux+WM20mBNJwKaMEZnPopScUafAqKrd7eYxH6A5LC2xtZyVM1YfEKbvsdtCRK005rsHKodtPOL5+xQ8VB0XQn+TxD/XmB3ggkMJjSjD4bO4csk83FPYhf4HECAUM4snLGDK1wgF2dYAHNYqR3VkBb9DFrN09WK41wde0kJSP0B4fYKznj9QmO20fTh8ulq2Wkfq1fdrpm4OwISZlJpO1Cds5OPT/jRJeleK6bwIZnnXmkL3+Dfi289IAQbDoSEGLPWMHNNRoLAGM/jhwE1M91u6rwr4afmz9jhxiEfflKJYBi1AeawTZzt3BhIXN3YsMvsvecQhvV110IiIOYi3YODQQCj+WY23lDL7RrglZj21WKk7+ccZ7YGkiHSRFopTBPFcTv+4Ljll1GmRO4dJJ9Y+qPTJ+/BP0AQAL8sZBImdFvBrwcMF0yIiLH3dT3+ScrSX9dn6BbCyipUiAz99tcjf9/PTh6TiYxhrnUoWmuKAWMJSjJn6j+9tm4XalU7pJJcqEkIKt3g4VbDjTQ4xQLBRceXxAT6AElHKAyKL5ZLYn7RLkoIhxt1m6tWO7QnqzU7KQE9JeFfVZg5+aMrcr7FcRSKEzZa5AKi2IE8UxDZ+sihFOzj/6Z80U5Gst3iHYWWfTSombkHIWh4B8BwwQRAh88tFzcV3yONXv5UifiWqBOBCpKvtMqtfUdl7KFShG77dXn2qN6bGHAo1VHa2zammThNykkxi9sqJmfGbISDEU4csnHwpPDsEZsazbri65xKPfvww9kvPSFmDK0PFyicKVf8AIapfNpmjs+I5mHRBqF/2MYOz9q0RmRHJSRq1QSbdpVMyAA8Z7l/k5FBnB/OMXDBPNYzbSAr7ej80e3HYVwoEKEgc2A4N7gjmCEwXDBEwEjmoRjP8RvsZ/95fbisT4ks1Iq7EJPbZ5QOzgNYU2owVFCnvRNCdvW5/LFMoUlxnf/UmE0cLdiRly/ZhU9etYvCC5+4aoeePWeTJ6fVaSsWMZDwqH85+WKL2hbgFjFz0w934CZaDmCYEo1zV47YxY8/7bTB88KDL1+07My4Z4dj58+XaaOiwhOg8xbzhJk9Byug82edzNUhGGCsyg3OUigBLGfeFhJeVdiF2CvRCRgumABcC88FAy+KYtDzo18AmOXLf/OzSi23YnAoNAJhsbNPDKSLjKL+hQnUGvTyudGcaxMzIpoGNdHLKEepWsnGJyMNHOE4jQkGwqOeII9wAAN3+vvEUf854KHua3DQ5sAgNi+JY82q5eKdyxwGQY1kEBIGktsgZqqfhsE1vS9E714TJhUNm4PDd+hiaL5QMCI4wXZx94bhgoGGInF1KFv8Knr+Q5FmJ+7LcmMRT8UMf19N5RiTr8S1h528QJ90UFvQ+cMIaovnRWFRx9Yezdvq3QcR3ntojaWlSO8vIBxXlRyt1o1tgoEHSfAo5XFUzSNhA6ClXFktOc0O/dvC6/dtU2lhwZTuklNmD6oJZJKzQzgQByWE9hE9MM3BOggFGKvt6PxpwhgEsdMbghixHFR4CjQ1aQjnd19jAjEGAQiDTZ4of1jYxC/2d/Mc/fPt0+xuZrWlZywsf+gzMSLZT5DfFHsw1eygCmATkx+5m2FYHXGIMOj8R7r6gW6AByOiDyTDcPpGknYUJOa+BBeAAx6IOvntNiDhtH2C1FEF5OJrjbo2H8pDBdj7WNTvtCLUlnhQ4NaaEI2j7AXDBRM+ZlWUqkrzxIUL2EgFbSalA4GpWfaNn+htKEmUIs6+72kD0PZ7J8NyPkshzgDI5bNWKzVs7VFxCx8WXdsYwA9g0LcsRvYD+Laazaqf2apVbughoaAlDbSLCyVXP/hIUf6EZXGTDbhh+19PoEKtyFf5b39E6f+QcEHN8w9Fi9EZJ4jQzGNnhpYznIihgVRqsS9Vh93VGPiBWpkTHxAC+n4ERFVlXE7kHA/F9RtUb04tp0ax7K0aQ3/TnT3eqFQIBSUWxZZOHTUAxhJLXIjApQvo+v15zTYWaUejRIMs3feDEBu06ZOgDdQrdVt/XIxpR8htGBtLZVdlp5VWBFnMZW1dyFpaVGISAHG5uRZX0wesYDoRilfOdAqyssX2cjclxi4ANwowzT2866abgN0JBkC3zRD4VUWCeQ7v8IXqS9FkhPZN+b8tf2oREy6EyC1EsYKsA3FzwV90/hhjoH+BIezD52aKynrN9f6OCs+JGcXlsmoWZVmtaD5v8yODD2DAD1U0e/xRwKVEY0U1b1W1BH1/RF/9mwoDN2E0ShoM6DtXX4+PeW30tbOI3Bbg4AGFDJExuODumG8J1aS7lhe+fFrPDJg+pnc0umrOOHbejzbhcAYg/umG3QkGBrO/n34EQ4I/FL1VEWefOwmgqULVTM2hs2O+g7BQMaN+rStsIgUYRQDkj4xzesVbbjChiLCSXKtaXv1MjuGzGAq6orPe9H4DRv90alJN9uADGNxPTREHKrB3X+MVa0gAhlWn092in1P6UqJfltvrhUm7NzKquLZEwlPnHbpKT/uCcvW0XiSg1E8l+KLwqprKVzatPSs/bAIYMAlRPbvdGWciwBf6nC3yO2B3goEAIyzOkKEZY82RUQbjd6xBSCjzG87tIkKGhjx/Tl5wB3+AX2FrRMNcLCJiJ1TFHEHyWiG68KCsJqQkBtGCgvSZ9VTauM+F+2AQIgc29BNKB+TPEj8aS3T5t1ULaKK4TwaagTYXPECbNHD9CUecBKE77ySQlobnLXWKXsCIl7LFKEt9ix/CQI1gDofdGDyAOOFAItHIjYMZnI9BJY9fH+EM1/kDEMBNv9xY51DQKw1wVPgjYdEZYksF4M/e79CMMXCgz5H3yeJJO3n3hI1V1RZ6I6588JkeZ1uat6hJw0yJgxIClNMZZx56ebaWI9b408GgMARjBZn1Mo66guHc9sccCj9OWcIUigVShBhpTKNvgUaqaQupBbt1/rbVppQJIufkKX7FlzDK8qEwbggFiPPkEOjhn4SYXQ4S1u51/gGIjPi5JwUk5UEoADykfU36d/ctcSIezj6ym8dvW3VMPSGZEhCcxCzlOLxn1DC4e1c1I8IJ180/Ui3h+BH08rsSCiDyxEB/g2UNfRl0rk2Md+jfGotoMwrbLpSUq70XZxbt/qkHVitQsgTJuMUXBOL5JaKkUJLgiRAmOd4dJgG7E0wgQKRUQTAkAMAf7OcfIA7X2mza/IHHdufkPauMMlSJIuAvBhM0bQwK6IojjOYdefnhv2eI40WgeaULYw6u94E29Ybhc6AdhAKzuQkDodw7ct82DrLnIvLbAaSJ/Ia0RdmJIPnMt73C9IDd15g4cz0xwCC/JJBxNVePqDmnb6qZKkdpVviAfEqtCEgrkfTfNyrH9OHe6iSw4+8JFJ8zLbt/8r7dPXLPNsYlFIXZAQrfE7thN2G6YPeCea9BGW211XarRC5n0R/oXalxVJXvicH/SXEIbWSA9rQ4WbTS2C6Wgn8GoGR8QKBSw/7+2fuzVmjRkyoxKq4fOMY1I9PM2LE7R/1Aop615WcMexcMidxvQhPfjjRH7MTjE3bu0VmbbU577aZ9D8YSnbAJxN3D7Bdj2r3oh6aNcBo9K2zaDi0cshOMHjmLQN/2hPj7DvaCYf49YPeCCYRV7R16RRTckpiE+H2knnehHF88Gu31F1fw8v5TTKEfyOutG8Ox8f141A+gzTfeTAkxwuimHZRunTELwtFc6kjlsA/tJ9YnxCx9TAkKEPIHF+ELv0nAH0z6B7ch0E2qPzD7Z3mbERfPINAdefDjOZkJIH4/voBQjvn1JEEoCASmTTUbbhzBnvztWHbjDHTyqKJ7Dfp6gSdPtLGK4QQMNtVihIGqOdC+KNq4cci2W81En3p6cxqeHykdsdOPT9lYqWttjvyQTxLD1IDfwNHA/MCn4B/4Evz7wHDBQABCrIqib2CxkkU65i24A1Bh1MvxgqgCQJ5JTAgD8Cw8tHo8ujNGzx2hCDn8gDP4n15dt5Mb5S4suT3A06WiTWMwEdee3QAKQwT6TLFoV9eKdlF0ThVLHdo8X5T7s4obFXfnAAZA3+Y06Zwrz9nISrxMo/+OAEb2nGvA0cdv6Z31s+APsojL+Qg/EHK4KavRQSgDhDNYMEEorIhyaiyXC/w0Zemvpn3Jv1NCWCtj3wwHEXwlCueXMLCCSomBRgIyGNDFNYV8ulDqHMBQtIONhs2qVE3MTu7AA/m0H8v4ohiL9pJaMAhCvtlE+9x6dLACNgXT09Cb6tAtzE3aocKIHZUf28hP7rAnQG2gf1zDQmbID7isH06RZfFS+eewcDe4gF/km5UQ3vHncFdubudAcfgypEoMrzFkHvOc15U8Dhh4USX87qa1v63ELisSKEhAfqgAK84a+bY35FdSIltxRrrAly5igLkuFJVmzr/czGVs+sysnfjEVeEzW/jxqzZ1dk7NXcqFg2nTCAcwxHS6wYUuTKtpeka17ISY7Wf7H5q0Ix+5Yic+uUX71MeftnPPnbD89Jhf+nNBTVuvAxg6WYl//fIEDC9QcbBWBq846pcWA8Bw5Q0VQI6OZ40MVQmGG7Q4JHwnazowWDAhAXk9sLrM7afo/FnIpOlSU4XiiYja823LjCtlbNBBUfbvKUFzQo5XD7nrAXhhtsRBCaiXRwt5K8yKQbmmsNHBMb1jRgCwHD+nmkWtYQ7SjzydPX2Wh9M3m5mMTR0at5FUXfS2aI+Ito2mLZPPGMnlPM6LmEhpEkwzuwOIEJzTD8v63ALCSjuLl9QU/ESSK0t8He05Ob0kR07X/ajCso2FMGAfGF5jVBvQRqY+o0g+rEh+qI9W1ZQd0zOHCgCUEFXf9pjCcTM372QIFXSfyKN0tW2suelGfEHnn82phW9tWvneo21YuU+13SIGo/muHzh9EaR2AcEYI5tNW21h0SpJ+g/mbXVNNcr1RKi8I1uE8SYjwYjONogSH219ZFkfPT81hSTGS/tYwmBJlG4qX1z4gzYXDSb6KbCbZhcMFwyJoFROio15Mf4t1Y6iHFnaD4DJjlIPo7Gz8t3N/1buKMsQTp9EsP0hWMd0gPgA3OTfQb3n40sXCMI3s6pl/YwxAFaPMahIMpZvuXQhSVsVw28+Z5koBCI3cw0WLWO3XgD3VEPYpZxaEK0wYqUsqKlySyFsHtS/0DczcOIMHlc1D+H8cMEAoultopCbLzafUR/zSGJ4XZFAgbYVBRDtKOeqnNUnt5RYOjoGBnzfA5jQlcSkbYLRYxpjDGHHWAJ07m6Fg12sBKMu6Mc6RMZJ5WE2DxBVZiTr9LYZYwShxBBlC3V39L4DSAp+as59ZZljS8B78qLDR0gissmKKbUIfRUtDIaTDJRi/34wWDBETAKwuUXKjMKwoaKjY3mLqgsQcTjJnANtPiWEMtWb4WOPWCBLfsIm1XRsmkQzZnpffVi0+VvLNn8zwgU918tbTReGfI/9AAYo7YTgejc+1z+Abx1fj9TXHdqosov1aNuhi7Pt6Zp3WwQVsOjTLQgOdPwwmnN02NXN8S1rSv4tZViPrkSc0C/9Mjw7r08pSVgPsQTXO+kOgwUDUFV/qMRxvxa6fPEmXVGJJsHhmivOALiuBGgAQDPnqBLooy9qU8TzHSBfJaBtbxcKvjsZg4nKRs1vpli+u+oGEhtLJUcOYuDgBD4i0RxgzakXfXX+hFNB4gCGlRznjMGUtp+EgSA2RC/QBtfmNxQ3SoBocMG2cpRnPoAEk0C2VdNo1u0bev6Jnm/rGeM+pcf1USNqWU7FGacQczFF6CYZndHkDYDhgoEQE15FmvmGuMx8hj6E0y/o9ADi19DQfk+IUQLzGdYladrQbPYRDMAhPWyAdeGIIe1q09burfpBPGm1/zRr/LIXn34AMycKHRtbS2Icta4XKIg3Q9TGNyYKHROp0nLZaqoxjCY7tKl1GoltctiDwt0RbTbk9qwtAejuGIVRidWvpn9f9DWJRCg09TThbg8wqbT8majAGwxWxJfUOb0PGBgBwwXDqOwFUYjNQCklm2X1Mei2L8sPi0ye1Yb63IWrS7LCjwl/TglgstUF3QcwwIAgHLZ1N8VABAEjaeIIx3Mtn/M9+RhWXNvNAQwCLj6n1mCQ8TCftw19gxz4lBoakAMYUF3fjg938AMYlLaYjP+2VT0V0hnqv0/L/dPyUQFl7uZnxNCMq8nyCDStaH9K7gyUaLooyGru3UgDzg9Iv/I7QOev7x2odmpFmFD6vASiHP9ErWHZhVrBkg32UkSGsQFmovzGen5PGGEFL77+ss1UJ51BIeeu81e7wRYI1sQKGqpyjmVONaeh+QfWKzAYwTBgQKvZ2frdD2J/5jPM5JmfMEpjCI2gp5VvwqxrUovJ0nxu1Nb0zJZzX2XmY6eRsvWxdXvj6JtWmdEEDv6oJlBr/NwYmirmdXLr3EPmkhfq2SeU8Ectj89h4BedP+CRxCC3vV26AHS3ibjHJd+Bb0Ik4Zukf0IwM+szdv7OeTF/wpfXw3cIh84cownMUzlacYQzZDTspA/CaAJzcNr9oUIJEIcLCjBWlhE4G2En1NnjVkIYol+NR3DbhWK+q/rGiVu2PLEcGaDAcATDL5jMOwxP1oQQJvjDk+Af3AIkBMMngyEZYRID0/EHeU/6JYXSBavTq3bj9A1bVCFo5PVBzAAYwgEMbqqk/gPjCMyUOJ6qlI6GuOjldy0UIE4fgwSaPmhAq5jJOW2MM9xCRqyALuhZJg7CjpbsxrGbXmD9XMtugMkUOPqaeP7S4QnAOzwhDNjt3weGCwboRyTp3itMv++UP4Rz5/hte3DqodVH4nsqI19nIOjGEXoPwujX0e8KSIsQGk4fenICecedykAUekUmtlHYsNvH7trSlOYKeIBJGJbnYf4DYHeCASDYjd0wzD8JyiTHgdw/+MCW51huVcHafWp+pqCRsDWzTbt95o6fiuFc6hZKgGF5HubfBz44VpBIVfHMo7SNrrE8EJXaPw8QRmPZzZyG0x8Miz4wwTCPGF0Ys8sPLtlUaesABoAfBgJJpBS/FwBtmqpt9N0nAqLxAUAzYyfvHvc7CLiL4P2G3QuGHHVjgF5+AZMQuzGxm9qYsouLVzQ8nuuUSrxhEkJAi5hEhmJPIiBoIxC+94MdErRRJ28TkJ5Z2ZgojduJBxJO8XAknH3GvR/YnWDIFSGTCMSMjnrQLsStG+CMYLY8axfvXtScYladbDRkDR1uSkwb2+TI9w17Okaez1TKPoxGQHsVTkcoog0NFHNPlbboc58AZwxk0feLticzjmNiY0zCOaGac9iyza45Q8h/gGHvQPd7HxguGAgRiqEgEykWNJlM4RYYxOYlJpJJxM25LQwQhz93+6xNq8aw1yWknSNJKL1nJYBX1tbsXKlsZ2Pk+Upxw15cX3d/wu1WOIE+puLYFHAvwLNr63ZuY4v+hY2SvbS6KgFt2KgExNRqu3DG7dj9YzYxX4iqVTJuCmB4D88hUkBunZ3b8CzINvj3gcGC4WNCIIjvK47fy0Q7qL4mXFNkNL0k9HcVOfYAAb8i5KJShJOMgWc5j6yPaqLmWXdgSzhn6j+1UXQBHMLYQhNMNsMGzDdbdqTR8NMs2B7uwom/7wcRf9pKZsuvOUFTysnl3OaXStAmrgO1up0vV+x50T5aryqtqpkQcZ62bbQ8YrlyduvgCH7Ij4Km7uoFtTr5JdI4CL9+jPzjtG/o8pWRpGAHCGewYAAk/LpofS9l7Zooofh5TR/+drTC7IBCjJ1VrDLfFHKzLGf+s1yRLFExtHJRtIFx45qBf3htxc6KMaPyGpkbt8LpQzZ79kiMh21S7+NyZ7MrtQbhULL7QURbUSsMTRW0C62WZUezNnZ40qZFc/ZcRH9Gz2NHpiyXTdnhatWeVuFg2aZTcwRk1Zta1pHID3EjFA66/qp+vxEVSl+o5CP4xmrHN/Xd7ymX2EhQYL+uMH1UIUkY7E0CFEmqKqmLY+3PKqvsa0fHcEPPNG1Q+Hm9f1GRcwgBOhlmuC/IjXUhSggcSkIGaUVAE3ZFTQinVpDp/NSYTR+dtOMff8Yufe5Fuyy89NmX7NjHrlrh4Lg6aaVF9LicZ7Q1uNZgD8Ax8KcVloXKzWzG5k5O2eGLB+3SZ563y6J7+XMv2cVPP28Hzsz5hQ9ol6dUoy5ImAwQekIsGPZWuj6G/HHmAYYWmDFRUAW+Qfan8lbcvggMr7CWQR8Daej0gSFyE7BiwpXof1ESPytKKiXtit4vKDLUARDniFuu+OVXiUrPSoiflD+LmCR6B1BPIi/0MVy6wCWkMJ2t3rm8WLKyZKXHj21DWHr8yFp6b8a3k7OellPzE1m+9IlCgPusBM45AkHnPzqR9zhL8/Oi/ciReCqrZR8tomqGZ5y6MUIz14d5bmTBYiR55gRyVpG5Np9aQqtC5Gwlp2/mLH/4c1bI+IVu4IkFA0yLzulNy63mouPQWSlFVRoME4mATo5Ns6rKHFnialT4SAL7AKZLHFE1hi5EjPN0KjwljJswio8XIpxftObqmuXH1D4oECRRZp3FOM8NKHYCrmTOrz9BKDFQeLkFY2NhyWlvCEuLy50LtqNr7jkQte3XCrul6NbnESiIh2OFnQ2w6F0wQEEQ6GjQ6NIonFEappQKatCPhPxOyu2U3OifiaoP7E4wEKA/ZlGJUsFyPwLgvBgSDeqx/UfUBP3jhIywYNcX1GfpO0yEyEMy7ynNa0CPN0YuSnDBxMABDHTiNGvdfNuCtk2gqvanLejQlhc/adHmFnSHWNDQ5PwZ71vcJQE4CFnUZBeym3BxeA9NOwpCahIEJCA/70ACwZTJVdGnFcXhmDE7CG/BYMGEDyn5qpLNgh64cIHLBWgrOUYeCvAL0xxKzNX4nW9IHNgT2r67i3OU0VyiH3FQeM6TadSatj6PyjdC9uI34qYMkjRlXF6NHXOv/IVoF0R/+wEMQgkGFTN01x8LH2mUNxITwl8/HHOymBtRyxPX5F6Ah5LkhZFawwkY8IATmVQw22+pCZ2PC/PnhDRpj+R+S2EDf/pAf8HEuc2ovfGLBf5AJVx9i9cW/FTz2SjL8NF1/xheyD31tJ4H1pQISBOlnSV+jmznpAuEg21XtVi1+evLvh8/4NLdNVu8rfEocehb9JpvFQreL/WDtPqBOyPjkeBx0LcId/Xheocu+/6X7635M/YGaE5hysLIiBU1WOhrUwCE+RqtA/2H+pF0VbX9XX3BFnOsU5lqUFjpY9S0ucKRQQODogHVYnCN0feug2DxlyEwe/wxXKOm0EYGnb/CcbmAW4CgxWvpm10AodhviSoXtS4jp+p6xR6+vWC1csOFRFvuiF+s8yccx8lzZAmtq2LdAbihUCuqiWJjLWWFAxgWbq3Y2uOiW8tAE+RaeI5I2ayziVzfKC1vT0wofdt3L3eAQBKG6/J/W8+cGsJRWBjdS1i5ds6nEuGfR44gGAhQUxgg8D4ABgtGCdrMKQMacbQnlEwOi2OCScOLOc6lSAguCAYEwfpjMNUosf6roPqUa9t/MDXtx4vUG5vWqDQ1oo4MMJJItOQxnNPPtwNXpOVHrWGHMsYb7OevqcZsKo5u2kzOGYCgvmaXNEInwiilSisPIS49+71so/rlUj1uW/odeX9TQha/mpfFfaYUz4hnop37tmhhpMIklP6HQcO+O/+QIiSLrfJfEZ34UoH2r4sio5Ex/cIplYT2r+r539cvR8fjNgAa/kEUAWmj1GPD9aqY/Yawltvq5ANAkmNKXpc/4crs9efjAUAM1Jp6O2PvTBTsh1MztjimuYqY1Q30KRxZ/1PRxhZtWxMmGs2mBKqEKveeGFcxMzfBno7kYuinPHEgw+bzCpdTSKYZL7etWZSg1NK01/WN+uf2c/rlmwF82p3OnxQmCSFOnpPVkRIAUFX5phuovlRlwZEbx+xC+azvwXTOCZgW+JMyPKdSfaxB47wFqH/p7NH7ox7upeXtCQpHUOY7nCfD5aaHa3Ur+KGkW8D5AV5jU1HmO02Y0lVL1e1R+ZHde/a+1aeUCfKPzh+ekExGW5rfuUkSdslMI+AP4YI/v7jjH0yXYvodUJJ2b4yRBAgFgGDyHQiRBPdkGARD4pXYTDWj2fWUXb31tF+ZG4QD0E3BwNHNLanj63MRCQSSe1aoxeGDQQYWM5i/hmj58UGE6FMRiMNBz9Vcze6euGcLafV7nIqBZxAMvyBuQRAQS9aEpH8gHPw7EcWQEAyf7R8gnMQA3e8B4thaYy1bmVyxd069a/UcxtyROwDTMcigGw6o2YqYGNWSPQsFiNND8wQigFZ7J31oJ5NdSdfs9sQdezzz2GpzEkovbkGPMkS6+O1metKfZzBOzyDYm2ACwSFE+0LyWyV0cXrR3jn9rlVTjDu3IHTq3fjEoLipGL1ob+uv9Mz5MXcm79j8kQVrpDUECwxPQj8+BPde/v2+6YInqzFPAkogyx1rU2tWGWdI9+cHkFE91bC1A2vWnGSSMgBgdDcmYZDfAPjgBCNgvH/qwSkr1KIDGLoBBvUqqO8FQHsQ/bzSdnTjiI01RsXPPXD0PYIPTDBZ/Tv94LQdWzxqeXYwC5LMihim4abamO1u+4ckfX5R0PlxJQk3ADFkN7N2bOmYPXXzik1vcEDE+yuc3QsmVEW+4DfkMmA//x6AUM7eO+NCCZcuhOA1vSIMNrWy7I5SbLTVcoMJ3PcjoEAbbIkGtBj1oc08VK9bTu90Mqx2O22lhyyQtpn1Wb9PbWxeY1088egFyUjAAMPe+8DuBEMoJYp9ha6VJHHJLxnPKzI/gZsmOQinD5y5f9qOLu0UCoxHGOckjI+urdor62t2daNkrxTX7CN6xz2banUEtBsItJv6BmMLDDE+tLZmHxbtl9bX7fli0T68uuaXLkxxSq36PWhrkBbnoW1T5Uk79/is5Rc1tO8lHCIAcA8RJiHQCnzp/r4HDBcMcxo0c7+j4eQ/z1jmn2WiM/0RABHQCj3Q42/JH7//ScL7U3kwmeyTgAOrxyQUfSj/kAeYTe34zNKyPbW+YXO1hs006pZpbdq0fueqdXf/xPKKhxukIAsQeERzxfn+H19ZsRfW1u2gJphTojnabNlEo6m4anZWBeCjq8t+1gC1tbNqrTRqMK00TNtEaUKjuh6ZwglO0iYymWSDEvNX3MF1/XDCLmuN6P23z217wlDBuK4BQbymwtLYjLYUcJAA60Oq3em6SPy2MvGGSlpbxYnccOAAx6Yj1B6QPIABaGq8CrMxJeKABPQgnrJ02tquVYyQA0XZOvGUmMg+/GEHMAD0IwXVBL6ZbjTcqGM7beUj3sA0pfRz4QLIToOQPiCV4oxMFTzndAIIhJNI+VribycKJi0JaoB/J/wj+X9HftgFcAbzgIILkMTeQITCTEWJofk6pde/2LbWLyljLC+wyizBjL4xZqn78n9agvuPJJhflzsTZFZe+4w0kwcwUDIxfEAoTCBHpsfs8JWDdvrFE3YmgadfOmGHLh+0TTERXcwLaobYh7lFaTvEyfcwGHpwTgybkyYOF+z088ftjOgl6Z944biNzox7WeIaFIw36HeSTeaOuHCAuXARfRQF8o54tiyesSpK/t9RkIWUr4+5zYTIeu1B47mD4Bb0F0wMnHTX/iVR+Mt64f56jupFc3dJbqJfW61F6TusFw4kOB75ZWrKYpiekPg+QFv+3HpRJVSCVe1E5z9aGPHLEcam+N1C3KNvUn6KxslK1WtNv/xRW7h0gQt9AFZ6Z44UbGxatCe76E+OWCaX9jOe2ZvD6Rijvll2CJA3lvt/VwizA1CDqqoh70ooE0oht8V+SIjSDL7Q5PVLuKC/YGJmus6bPf6sGqO3/oaQm7Y5vlcRtJ5RgwlXaT/RTfy+Pr2bMt99HC9a9oIoTW2/cBRLlh06/42q1RLIe1D7AjxNarTWD/AXS/z8mE5m9IPBRb1UE83KNvoo55y8Sjp6GOwQplqN6OSN+PMdQPXSNyjEWP/zY36ZkhEepC8hesKxcMkv2wERGgMl3pHAVrY6MLTGOISCA1H28D8QE5UYSgRnD7tJEzZWtKHqezJqn9xYgYgHANezT242A9u2AcLpxiSwifWkmI6irdf3AO70SSxQJr/upkshKi1XtnRLAr7lKhSgB98izil/fp7Mu2LRc2pWrygkg6HYz61WQ9mRl3cJLORCkAjAPtBfMCE1hEAwIHfIoHfBLAnFj0Yfrlr+mDL+15WpLwl/TRm9uOnGDR2rxT6AHmaVI0ri9wAMODL53A5MAnp8di3TXIWkdgPuHDOPxjOkRKQtN5bfTnskZyMTeaVX2WVAoDDUkgrPfON/E4ADXmwRVwtBRJyb48YYtJpqKdrL4gUtSUQiAp5pjXcQ3AnJz3YCowqGyv9czMfkFYKUBNxZxicRcBXNHO+0oSfldG9TBUV9U/IS7C7wvMkbBRVaw3woneqsYdS91x9tw/tvPLYmIyqB50vMXhiNzknuBbjit5gjTPTubqrJHMDw4K3Hdu+1iPaDN+ettBKdJYPgGJtwjgDnA2DJmxirRADXcMNwj76CvuUPFe4P9LGartaK0vl1ucGTeI7XQdxCgmjqumnHMFgw8IHt7vf0NZYf7PHnfC7G6RqRtQ9ETYEPBRkG8vtvJMR11SBOg+hXOroS82phKta3qBasV/3wBfbjcytGwIrc52+sOJMw3MBGgC3onBPQKwqALYJoPdGOuhWOGI9VzKPrS1ZZo1/Zor2+WPJf0oDS7o5oV9Oq9V1pdZCb6/S5BgsV+1W9n9HzcZXbEc31aC2m9U5/Q1NP86VhM/chuAmxuO41DAhC6oLBguFbtoXT0VNT6OCZn0D4b8gTZRFEUbGqJPh8h1Pu6Id+Xs9ECo04DR1QZx8AE6bVfNZ+MjXlpJgrcY1IJqvMSVgdlF+j0pAgWlaRUL49O2NNzSv6ZYDwrLRsttP2qmhTKzHGQOCNMvGLJs2w01ZBkl9bozB6PNTX6P399AunFkPIh369QGIZQ//6Jb3/ggrpRyXUEUUKX15RDIf09bP6pV3813L7p0KsahiZYcgygPv9vTxnQvKA1SXzE36xTf4rQm7BoCqKsW4O+6uxHxczYB/Aff8hI13QVkkEPAqFoa/hWhB0+ZTYtiaE+cQcBSa4eZOeuTDh9ULBb9AYXKq2ssDZAAje75IR86GFgL0WQVtx0WdRa98UbWpLQwIN30egdKnt5Z8njB8lnubam2y6QI28uLds86jSznUkTMywNfus6KgGuZkXNt1c1ICauU9tAXan84cDEBF66YKbuOEHEB4/9MICP9yme9kh9EmCp7551Y6MHfTZNgAZ1/kr43PVhk1ppHa8WnV3jmLklgpe3p4oWDWb8gsYKM3DBANAIyC9Dds9zldKPknl8DpufGKovq4a+ig/6rdxcCITtD11+hBhrOeL9saZN61aULuEJ7WiOwHkmXzyYfDnmS6BERqJQCAMnQHeIxZEoO/3pvOHAAARECF1Q/ADevmTYNpaJXZ0Y9TO//i8HZ445J0tQBQIB5lvZljMxKVt42rayrH5KqdjBDsyBg67BoV1+oqb71hdprZwiF01m1ZBi64JbhNAAP04WVQoW88V7drpa1acKoqOHAgG47v5lAQiDJAkCAT+JN2AhGCilAyDTiqFSaYnIwx+3f5JiGOrTlbtxos3bKW+6svwAEFR8fKLLRjnIHExwpqaLJ5B3/evMHsSCiCiFAC+BThsoZHKqJbkrKZf3tv///bOoKVhGIrjz2G3gyIiu4gKg3n1W+26z7aL4JfYVZQxL3YXURB6mLpuan4vjYbgNNo6quzHHkmakDb8l5e0TdvCdXGIhOrlmME1H+SqM5ZsJ7OeIoawGGlny0QJiBMGqCg0x0d5WIi3HXFGJyNJOxMjjh1PXHvUUxojpDhxlza/UgZh3RovMgmwxctCbvJbOT+6kGyb9a6aHYdrp2+OML2EOFdWhqLB/hjjkzSacnh/IFt3LIquD/PGXK73UpnuTt/bAMRjXNlP+PYYU4YvhOHfw70ZnquvE4wlT0mxjsxnRcJYV2Z2ZvTRWZGCHyRahTmIM2sJ882+8o1cHhNzwlcjU1EgPN4VGFpoj5nNZjI4G0j/tG+/LOQP4BXAi+W4XaBXVCP8619Ar4NVDE8dtPO29Lo9Kwwb0kkqw8uh8a2ceBUlqwIx3ur8D8pULwo8m57S2mxJd//YCmPQj3XmpucwTfxV1rp8AhdRuVnIS1JRZU3NEHkF5VwlHRksGaQAAAAASUVORK5CYII=;" vertex="1" parent="1">
                    <mxGeometry x="80" y="310" width="102" height="420" as="geometry"/>
                </mxCell>
            </root>
        </mxGraphModel>
    </diagram>
    <diagram id="Eo4H_yRtIf63T9RTkrhO" name="Button">
        <mxGraphModel dx="1156" dy="823" grid="1" gridSize="10" guides="1" tooltips="1" connect="1" arrows="1" fold="1" page="1" pageScale="1" pageWidth="1500" pageHeight="2000" background="#ffffff" math="0" shadow="0">
            <root>
                <mxCell id="bcDW6zhT605u1WkC9-Md-0"/>
                <mxCell id="bcDW6zhT605u1WkC9-Md-1" parent="bcDW6zhT605u1WkC9-Md-0"/>
                <mxCell id="Yuu1uvKZGjfkazm4rhBq-0" value="" style="pointerEvents=1;verticalLabelPosition=bottom;shadow=0;dashed=0;align=center;html=1;verticalAlign=top;shape=mxgraph.electrical.resistors.resistor_1;strokeColor=#000000;fillColor=#FFFFFF;" vertex="1" parent="bcDW6zhT605u1WkC9-Md-1">
                    <mxGeometry x="400" y="305" width="100" height="20" as="geometry"/>
                </mxCell>
                <mxCell id="Yuu1uvKZGjfkazm4rhBq-1" value="" style="pointerEvents=1;verticalLabelPosition=bottom;shadow=0;dashed=0;align=center;html=1;verticalAlign=top;shape=mxgraph.electrical.capacitors.capacitor_5;strokeColor=#000000;fillColor=#FFFFFF;" vertex="1" parent="bcDW6zhT605u1WkC9-Md-1">
                    <mxGeometry x="300" y="490" width="100" height="60" as="geometry"/>
                </mxCell>
                <mxCell id="Yuu1uvKZGjfkazm4rhBq-2" value="" style="pointerEvents=1;fillColor=strokeColor;verticalLabelPosition=bottom;shadow=0;dashed=0;align=center;html=1;verticalAlign=top;shape=mxgraph.electrical.diodes.diode;strokeColor=#000000;" vertex="1" parent="bcDW6zhT605u1WkC9-Md-1">
                    <mxGeometry x="250" y="300" width="60" height="30" as="geometry"/>
                </mxCell>
                <mxCell id="Yuu1uvKZGjfkazm4rhBq-3" value="" style="endArrow=none;html=1;strokeColor=#000000;entryX=0;entryY=0.5;entryDx=0;entryDy=0;entryPerimeter=0;exitX=1;exitY=0.5;exitDx=0;exitDy=0;exitPerimeter=0;" edge="1" parent="bcDW6zhT605u1WkC9-Md-1" source="Yuu1uvKZGjfkazm4rhBq-2" target="Yuu1uvKZGjfkazm4rhBq-0">
                    <mxGeometry width="50" height="50" relative="1" as="geometry">
                        <mxPoint x="310" y="450" as="sourcePoint"/>
                        <mxPoint x="360" y="400" as="targetPoint"/>
                    </mxGeometry>
                </mxCell>
                <mxCell id="Yuu1uvKZGjfkazm4rhBq-4" value="" style="endArrow=none;html=1;strokeColor=#000000;entryX=1;entryY=0.5;entryDx=0;entryDy=0;entryPerimeter=0;exitX=0.5;exitY=0;exitDx=0;exitDy=0;exitPerimeter=0;" edge="1" parent="bcDW6zhT605u1WkC9-Md-1" source="Yuu1uvKZGjfkazm4rhBq-6" target="Yuu1uvKZGjfkazm4rhBq-0">
                    <mxGeometry width="50" height="50" relative="1" as="geometry">
                        <mxPoint x="320" y="325" as="sourcePoint"/>
                        <mxPoint x="410" y="325" as="targetPoint"/>
                        <Array as="points">
                            <mxPoint x="520" y="520"/>
                            <mxPoint x="520" y="390"/>
                            <mxPoint x="520" y="315"/>
                        </Array>
                    </mxGeometry>
                </mxCell>
                <mxCell id="Yuu1uvKZGjfkazm4rhBq-5" value="" style="endArrow=none;html=1;strokeColor=#000000;entryX=0;entryY=0.5;entryDx=0;entryDy=0;entryPerimeter=0;exitX=0;exitY=0.5;exitDx=0;exitDy=0;exitPerimeter=0;" edge="1" parent="bcDW6zhT605u1WkC9-Md-1" source="Yuu1uvKZGjfkazm4rhBq-2" target="Yuu1uvKZGjfkazm4rhBq-1">
                    <mxGeometry width="50" height="50" relative="1" as="geometry">
                        <mxPoint x="320" y="325" as="sourcePoint"/>
                        <mxPoint x="410" y="325" as="targetPoint"/>
                        <Array as="points">
                            <mxPoint x="210" y="315"/>
                            <mxPoint x="210" y="390"/>
                            <mxPoint x="210" y="520"/>
                        </Array>
                    </mxGeometry>
                </mxCell>
                <mxCell id="Yuu1uvKZGjfkazm4rhBq-6" value="" style="pointerEvents=1;verticalLabelPosition=bottom;shadow=0;dashed=0;align=center;html=1;verticalAlign=top;shape=mxgraph.electrical.signal_sources.protective_earth;strokeColor=#000000;" vertex="1" parent="bcDW6zhT605u1WkC9-Md-1">
                    <mxGeometry x="500" y="580" width="40" height="40" as="geometry"/>
                </mxCell>
            </root>
        </mxGraphModel>
    </diagram>
</mxfile>